%TF.GenerationSoftware,KiCad,Pcbnew,(5.1.6)-1*%
%TF.CreationDate,2020-07-26T08:56:46-05:00*%
%TF.ProjectId,nanoRT,6e616e6f-5254-42e6-9b69-6361645f7063,rev?*%
%TF.SameCoordinates,Original*%
%TF.FileFunction,Copper,L3,Inr*%
%TF.FilePolarity,Positive*%
%FSLAX46Y46*%
G04 Gerber Fmt 4.6, Leading zero omitted, Abs format (unit mm)*
G04 Created by KiCad (PCBNEW (5.1.6)-1) date 2020-07-26 08:56:46*
%MOMM*%
%LPD*%
G01*
G04 APERTURE LIST*
%TA.AperFunction,ViaPad*%
%ADD10O,1.700000X1.700000*%
%TD*%
%TA.AperFunction,ViaPad*%
%ADD11R,1.700000X1.700000*%
%TD*%
%TA.AperFunction,ViaPad*%
%ADD12C,0.812800*%
%TD*%
%TA.AperFunction,ViaPad*%
%ADD13C,0.508000*%
%TD*%
%TA.AperFunction,Conductor*%
%ADD14C,0.635000*%
%TD*%
%TA.AperFunction,Conductor*%
%ADD15C,0.254000*%
%TD*%
G04 APERTURE END LIST*
D10*
%TO.N,/SPI2_SCK*%
%TO.C,J2*%
X99695000Y-86360000D03*
%TO.N,/GDO1*%
X102235000Y-86360000D03*
%TO.N,/SPI2_~CS*%
X99695000Y-88900000D03*
%TO.N,/GDO0*%
X102235000Y-88900000D03*
%TO.N,/SPI2_MISO*%
X99695000Y-91440000D03*
%TO.N,GND*%
X102235000Y-91440000D03*
%TO.N,/SPI2_MOSI*%
X99695000Y-93980000D03*
%TO.N,GND*%
X102235000Y-93980000D03*
%TO.N,/5V_EXT*%
X99695000Y-96520000D03*
D11*
%TO.N,+3V3*%
X102235000Y-96520000D03*
%TD*%
D12*
%TO.N,GND*%
X121920000Y-97536000D03*
X119380000Y-98044000D03*
X120650000Y-97790000D03*
X116840000Y-97917000D03*
X115570000Y-97663000D03*
X114300000Y-97409000D03*
X107950000Y-92837000D03*
D13*
X132334000Y-93218000D03*
X131699000Y-94107000D03*
X129921000Y-87630000D03*
X129540000Y-84455000D03*
X128270000Y-84455000D03*
X124079000Y-85471000D03*
X123063000Y-91440000D03*
X122936000Y-90170000D03*
X136398000Y-94107000D03*
X139065000Y-93345000D03*
X133985000Y-86233000D03*
X132715000Y-84201000D03*
X133731000Y-85090000D03*
X133477000Y-85852000D03*
X127635000Y-90170000D03*
X128905000Y-90170000D03*
X128905000Y-88900000D03*
X127635000Y-88900000D03*
X127565998Y-86551983D03*
X127124002Y-88389002D03*
X129415998Y-88392000D03*
X129415998Y-90680998D03*
X127127000Y-90678000D03*
X127124002Y-89535000D03*
X129415998Y-89535000D03*
X133350000Y-93980000D03*
X133350000Y-95250000D03*
X133350000Y-96520000D03*
X133350000Y-97790000D03*
X133350000Y-99060000D03*
X134620000Y-99060000D03*
X135890000Y-99060000D03*
X137160000Y-99060000D03*
X138430000Y-99060000D03*
X139700000Y-99060000D03*
X140970000Y-99060000D03*
X142240000Y-99060000D03*
X143510000Y-99060000D03*
X144780000Y-99060000D03*
X146050000Y-99060000D03*
X147320000Y-99060000D03*
X148590000Y-99060000D03*
X148590000Y-97790000D03*
X148590000Y-96520000D03*
X148590000Y-95250000D03*
X148590000Y-87630000D03*
X148590000Y-86360000D03*
X148590000Y-85090000D03*
X148590000Y-83820000D03*
X147320000Y-83820000D03*
X146050000Y-83820000D03*
X144780000Y-83820000D03*
X143510000Y-83820000D03*
X142240000Y-83820000D03*
X140970000Y-83820000D03*
X139700000Y-83820000D03*
X138430000Y-83820000D03*
X137160000Y-83820000D03*
X135890000Y-83820000D03*
X134620000Y-83820000D03*
X133350000Y-83820000D03*
X144145000Y-94615000D03*
X144145000Y-88265000D03*
X147320000Y-89535000D03*
X147320000Y-93345000D03*
X147320000Y-87630000D03*
X147320000Y-95250000D03*
X128397000Y-94996000D03*
X129794000Y-93218000D03*
X126423957Y-94295067D03*
X129413000Y-99314000D03*
X130429000Y-98298000D03*
X128270000Y-99187000D03*
X127127000Y-95665002D03*
X127127000Y-99314000D03*
X139700000Y-92710000D03*
X136525000Y-92710000D03*
X137795000Y-92710000D03*
X135890000Y-96520000D03*
X138430000Y-96520000D03*
X140970000Y-96520000D03*
X143510000Y-96520000D03*
X146050000Y-96520000D03*
X140970000Y-93980000D03*
X143510000Y-93980000D03*
X146050000Y-86360000D03*
X143510000Y-86360000D03*
X140970000Y-86360000D03*
X138430000Y-86360000D03*
X135890000Y-86360000D03*
X114427000Y-92964000D03*
X115824000Y-91313000D03*
X116905998Y-92710000D03*
X126492000Y-91186000D03*
X126619000Y-87884000D03*
X129874002Y-91440000D03*
%TO.N,+3V3*%
X114300000Y-94361000D03*
X115570000Y-94361000D03*
X116586000Y-94234000D03*
X110109000Y-91440000D03*
X111760000Y-92964000D03*
X113411000Y-91313000D03*
X118110000Y-91186000D03*
X117094000Y-91186000D03*
X118999000Y-91186000D03*
X132207000Y-92202000D03*
X131191000Y-84328000D03*
X130556000Y-85090000D03*
X130556000Y-86233000D03*
X130683000Y-87122000D03*
X127074719Y-86042154D03*
X128651000Y-92456000D03*
X124712253Y-89591653D03*
X124201182Y-87087090D03*
%TO.N,/SPI2_MOSI*%
X125985735Y-87567368D03*
%TO.N,/SPI2_~CS*%
X126238000Y-92329000D03*
%TO.N,/GDO0*%
X125489754Y-92106901D03*
%TD*%
D14*
%TO.N,+3V3*%
X127127000Y-96774000D02*
X127381000Y-97028000D01*
X125476000Y-96774000D02*
X127127000Y-96774000D01*
X116586000Y-94234000D02*
X122936000Y-94234000D01*
X122936000Y-94234000D02*
X125476000Y-96774000D01*
%TD*%
D15*
%TO.N,+3V3*%
G36*
X132619141Y-83313651D02*
G01*
X132455688Y-83346164D01*
X132293901Y-83413179D01*
X132148296Y-83510469D01*
X132024469Y-83634296D01*
X131927179Y-83779901D01*
X131860164Y-83941688D01*
X131826000Y-84113441D01*
X131826000Y-84288559D01*
X131860164Y-84460312D01*
X131927179Y-84622099D01*
X132024469Y-84767704D01*
X132148296Y-84891531D01*
X132293901Y-84988821D01*
X132455688Y-85055836D01*
X132627441Y-85090000D01*
X132802559Y-85090000D01*
X132842000Y-85082155D01*
X132842000Y-85177559D01*
X132850662Y-85221103D01*
X132786469Y-85285296D01*
X132689179Y-85430901D01*
X132622164Y-85592688D01*
X132588000Y-85764441D01*
X132588000Y-85939559D01*
X132622164Y-86111312D01*
X132689179Y-86273099D01*
X132786469Y-86418704D01*
X132910296Y-86542531D01*
X133055901Y-86639821D01*
X133217688Y-86706836D01*
X133234674Y-86710215D01*
X133294469Y-86799704D01*
X133418296Y-86923531D01*
X133563901Y-87020821D01*
X133725688Y-87087836D01*
X133858000Y-87114155D01*
X133858000Y-93250244D01*
X133771099Y-93192179D01*
X133609312Y-93125164D01*
X133437559Y-93091000D01*
X133262441Y-93091000D01*
X133216954Y-93100048D01*
X133188836Y-92958688D01*
X133121821Y-92796901D01*
X133024531Y-92651296D01*
X132900704Y-92527469D01*
X132755099Y-92430179D01*
X132593312Y-92363164D01*
X132421559Y-92329000D01*
X132246441Y-92329000D01*
X132074688Y-92363164D01*
X131912901Y-92430179D01*
X131767296Y-92527469D01*
X131643469Y-92651296D01*
X131546179Y-92796901D01*
X131479164Y-92958688D01*
X131445000Y-93130441D01*
X131445000Y-93251107D01*
X131439688Y-93252164D01*
X131277901Y-93319179D01*
X131191000Y-93377244D01*
X131191000Y-91440000D01*
X131188560Y-91415224D01*
X131181333Y-91391399D01*
X131169597Y-91369443D01*
X131153803Y-91350197D01*
X131134557Y-91334403D01*
X131112601Y-91322667D01*
X131088776Y-91315440D01*
X131064000Y-91313000D01*
X130755157Y-91313000D01*
X130728838Y-91180688D01*
X130661823Y-91018901D01*
X130564533Y-90873296D01*
X130440706Y-90749469D01*
X130304998Y-90658792D01*
X130304998Y-90593439D01*
X130270834Y-90421686D01*
X130203819Y-90259899D01*
X130106529Y-90114294D01*
X130100234Y-90107999D01*
X130106529Y-90101704D01*
X130203819Y-89956099D01*
X130270834Y-89794312D01*
X130304998Y-89622559D01*
X130304998Y-89447441D01*
X130270834Y-89275688D01*
X130203819Y-89113901D01*
X130106529Y-88968296D01*
X130101733Y-88963500D01*
X130106529Y-88958704D01*
X130203819Y-88813099D01*
X130270834Y-88651312D01*
X130304998Y-88479559D01*
X130304998Y-88433189D01*
X130342099Y-88417821D01*
X130487704Y-88320531D01*
X130611531Y-88196704D01*
X130708821Y-88051099D01*
X130775836Y-87889312D01*
X130810000Y-87717559D01*
X130810000Y-87542441D01*
X130775836Y-87370688D01*
X130708821Y-87208901D01*
X130611531Y-87063296D01*
X130487704Y-86939469D01*
X130342099Y-86842179D01*
X130180312Y-86775164D01*
X130008559Y-86741000D01*
X129833441Y-86741000D01*
X129661688Y-86775164D01*
X129499901Y-86842179D01*
X129354296Y-86939469D01*
X129230469Y-87063296D01*
X129133179Y-87208901D01*
X129066164Y-87370688D01*
X129032000Y-87542441D01*
X129032000Y-87588811D01*
X128994899Y-87604179D01*
X128849294Y-87701469D01*
X128725467Y-87825296D01*
X128628177Y-87970901D01*
X128587418Y-88069300D01*
X128483901Y-88112179D01*
X128338296Y-88209469D01*
X128270000Y-88277765D01*
X128201704Y-88209469D01*
X128056099Y-88112179D01*
X127954081Y-88069921D01*
X127911823Y-87967903D01*
X127814533Y-87822298D01*
X127690706Y-87698471D01*
X127545101Y-87601181D01*
X127447323Y-87560679D01*
X127406821Y-87462901D01*
X127378953Y-87421194D01*
X127478439Y-87440983D01*
X127653557Y-87440983D01*
X127825310Y-87406819D01*
X127987097Y-87339804D01*
X128132702Y-87242514D01*
X128256529Y-87118687D01*
X128353819Y-86973082D01*
X128420834Y-86811295D01*
X128454998Y-86639542D01*
X128454998Y-86464424D01*
X128420834Y-86292671D01*
X128353819Y-86130884D01*
X128256529Y-85985279D01*
X128132702Y-85861452D01*
X127987097Y-85764162D01*
X127825310Y-85697147D01*
X127653557Y-85662983D01*
X127478439Y-85662983D01*
X127306686Y-85697147D01*
X127144899Y-85764162D01*
X126999294Y-85861452D01*
X126875467Y-85985279D01*
X126778177Y-86130884D01*
X126711162Y-86292671D01*
X126676998Y-86464424D01*
X126676998Y-86639542D01*
X126711162Y-86811295D01*
X126778177Y-86973082D01*
X126806045Y-87014789D01*
X126706559Y-86995000D01*
X126670602Y-86995000D01*
X126552439Y-86876837D01*
X126406834Y-86779547D01*
X126245047Y-86712532D01*
X126073294Y-86678368D01*
X125898176Y-86678368D01*
X125726423Y-86712532D01*
X125564636Y-86779547D01*
X125419031Y-86876837D01*
X125295204Y-87000664D01*
X125197914Y-87146269D01*
X125130899Y-87308056D01*
X125096735Y-87479809D01*
X125096735Y-87654927D01*
X125130899Y-87826680D01*
X125197914Y-87988467D01*
X125295204Y-88134072D01*
X125419031Y-88257899D01*
X125564636Y-88355189D01*
X125726423Y-88422204D01*
X125898176Y-88456368D01*
X125934133Y-88456368D01*
X126052296Y-88574531D01*
X126197901Y-88671821D01*
X126295679Y-88712323D01*
X126336181Y-88810101D01*
X126433471Y-88955706D01*
X126439766Y-88962001D01*
X126433471Y-88968296D01*
X126336181Y-89113901D01*
X126269166Y-89275688D01*
X126235002Y-89447441D01*
X126235002Y-89622559D01*
X126269166Y-89794312D01*
X126336181Y-89956099D01*
X126433471Y-90101704D01*
X126439766Y-90107999D01*
X126436469Y-90111296D01*
X126339179Y-90256901D01*
X126315218Y-90314748D01*
X126232688Y-90331164D01*
X126070901Y-90398179D01*
X125925296Y-90495469D01*
X125801469Y-90619296D01*
X125704179Y-90764901D01*
X125637164Y-90926688D01*
X125603000Y-91098441D01*
X125603000Y-91223010D01*
X125577313Y-91217901D01*
X125402195Y-91217901D01*
X125230442Y-91252065D01*
X125068655Y-91319080D01*
X124923050Y-91416370D01*
X124799223Y-91540197D01*
X124701933Y-91685802D01*
X124634918Y-91847589D01*
X124600754Y-92019342D01*
X124600754Y-92194460D01*
X124634918Y-92366213D01*
X124701933Y-92528000D01*
X124799223Y-92673605D01*
X124923050Y-92797432D01*
X125068655Y-92894722D01*
X125230442Y-92961737D01*
X125402195Y-92995901D01*
X125577313Y-92995901D01*
X125603000Y-92990792D01*
X125603000Y-93953965D01*
X125569121Y-94035755D01*
X125534957Y-94207508D01*
X125534957Y-94382626D01*
X125569121Y-94554379D01*
X125603000Y-94636169D01*
X125603000Y-95250000D01*
X125605440Y-95274776D01*
X125612667Y-95298601D01*
X125624403Y-95320557D01*
X125640197Y-95339803D01*
X125659443Y-95355597D01*
X125681399Y-95367333D01*
X125705224Y-95374560D01*
X125730000Y-95377000D01*
X126284048Y-95377000D01*
X126272164Y-95405690D01*
X126238000Y-95577443D01*
X126238000Y-95631000D01*
X125730000Y-95631000D01*
X125705224Y-95633440D01*
X125681399Y-95640667D01*
X125659443Y-95652403D01*
X125640197Y-95668197D01*
X125624403Y-95687443D01*
X125612667Y-95709399D01*
X125605440Y-95733224D01*
X125603000Y-95758000D01*
X125603000Y-99568000D01*
X98611570Y-99568000D01*
X98611570Y-97536677D01*
X98748368Y-97673475D01*
X98991589Y-97835990D01*
X99261842Y-97947932D01*
X99548740Y-98005000D01*
X99841260Y-98005000D01*
X100128158Y-97947932D01*
X100398411Y-97835990D01*
X100641632Y-97673475D01*
X100773487Y-97541620D01*
X100795498Y-97614180D01*
X100854463Y-97724494D01*
X100933815Y-97821185D01*
X101030506Y-97900537D01*
X101140820Y-97959502D01*
X101260518Y-97995812D01*
X101385000Y-98008072D01*
X101949250Y-98005000D01*
X102108000Y-97846250D01*
X102108000Y-96647000D01*
X102362000Y-96647000D01*
X102362000Y-97846250D01*
X102520750Y-98005000D01*
X103085000Y-98008072D01*
X103209482Y-97995812D01*
X103329180Y-97959502D01*
X103439494Y-97900537D01*
X103536185Y-97821185D01*
X103615537Y-97724494D01*
X103674502Y-97614180D01*
X103710812Y-97494482D01*
X103723072Y-97370000D01*
X103722726Y-97306431D01*
X113258600Y-97306431D01*
X113258600Y-97511569D01*
X113298620Y-97712765D01*
X113377123Y-97902288D01*
X113491092Y-98072854D01*
X113636146Y-98217908D01*
X113806712Y-98331877D01*
X113996235Y-98410380D01*
X114197431Y-98450400D01*
X114402569Y-98450400D01*
X114603765Y-98410380D01*
X114774074Y-98339836D01*
X114906146Y-98471908D01*
X115076712Y-98585877D01*
X115266235Y-98664380D01*
X115467431Y-98704400D01*
X115672569Y-98704400D01*
X115873765Y-98664380D01*
X116044074Y-98593836D01*
X116176146Y-98725908D01*
X116346712Y-98839877D01*
X116536235Y-98918380D01*
X116737431Y-98958400D01*
X116942569Y-98958400D01*
X117143765Y-98918380D01*
X117333288Y-98839877D01*
X117503854Y-98725908D01*
X117648908Y-98580854D01*
X117762877Y-98410288D01*
X117841380Y-98220765D01*
X117881400Y-98019569D01*
X117881400Y-97941431D01*
X118338600Y-97941431D01*
X118338600Y-98146569D01*
X118378620Y-98347765D01*
X118457123Y-98537288D01*
X118571092Y-98707854D01*
X118716146Y-98852908D01*
X118886712Y-98966877D01*
X119076235Y-99045380D01*
X119277431Y-99085400D01*
X119482569Y-99085400D01*
X119683765Y-99045380D01*
X119873288Y-98966877D01*
X120043854Y-98852908D01*
X120175926Y-98720836D01*
X120346235Y-98791380D01*
X120547431Y-98831400D01*
X120752569Y-98831400D01*
X120953765Y-98791380D01*
X121143288Y-98712877D01*
X121313854Y-98598908D01*
X121445926Y-98466836D01*
X121616235Y-98537380D01*
X121817431Y-98577400D01*
X122022569Y-98577400D01*
X122223765Y-98537380D01*
X122413288Y-98458877D01*
X122583854Y-98344908D01*
X122728908Y-98199854D01*
X122842877Y-98029288D01*
X122921380Y-97839765D01*
X122961400Y-97638569D01*
X122961400Y-97433431D01*
X122921380Y-97232235D01*
X122842877Y-97042712D01*
X122728908Y-96872146D01*
X122583854Y-96727092D01*
X122413288Y-96613123D01*
X122223765Y-96534620D01*
X122022569Y-96494600D01*
X121817431Y-96494600D01*
X121616235Y-96534620D01*
X121426712Y-96613123D01*
X121256146Y-96727092D01*
X121124074Y-96859164D01*
X120953765Y-96788620D01*
X120752569Y-96748600D01*
X120547431Y-96748600D01*
X120346235Y-96788620D01*
X120156712Y-96867123D01*
X119986146Y-96981092D01*
X119854074Y-97113164D01*
X119683765Y-97042620D01*
X119482569Y-97002600D01*
X119277431Y-97002600D01*
X119076235Y-97042620D01*
X118886712Y-97121123D01*
X118716146Y-97235092D01*
X118571092Y-97380146D01*
X118457123Y-97550712D01*
X118378620Y-97740235D01*
X118338600Y-97941431D01*
X117881400Y-97941431D01*
X117881400Y-97814431D01*
X117841380Y-97613235D01*
X117762877Y-97423712D01*
X117648908Y-97253146D01*
X117503854Y-97108092D01*
X117333288Y-96994123D01*
X117143765Y-96915620D01*
X116942569Y-96875600D01*
X116737431Y-96875600D01*
X116536235Y-96915620D01*
X116365926Y-96986164D01*
X116233854Y-96854092D01*
X116063288Y-96740123D01*
X115873765Y-96661620D01*
X115672569Y-96621600D01*
X115467431Y-96621600D01*
X115266235Y-96661620D01*
X115095926Y-96732164D01*
X114963854Y-96600092D01*
X114793288Y-96486123D01*
X114603765Y-96407620D01*
X114402569Y-96367600D01*
X114197431Y-96367600D01*
X113996235Y-96407620D01*
X113806712Y-96486123D01*
X113636146Y-96600092D01*
X113491092Y-96745146D01*
X113377123Y-96915712D01*
X113298620Y-97105235D01*
X113258600Y-97306431D01*
X103722726Y-97306431D01*
X103720000Y-96805750D01*
X103561250Y-96647000D01*
X102362000Y-96647000D01*
X102108000Y-96647000D01*
X102088000Y-96647000D01*
X102088000Y-96393000D01*
X102108000Y-96393000D01*
X102108000Y-96373000D01*
X102362000Y-96373000D01*
X102362000Y-96393000D01*
X103561250Y-96393000D01*
X103720000Y-96234250D01*
X103723072Y-95670000D01*
X103710812Y-95545518D01*
X103674502Y-95425820D01*
X103615537Y-95315506D01*
X103536185Y-95218815D01*
X103439494Y-95139463D01*
X103329180Y-95080498D01*
X103256620Y-95058487D01*
X103388475Y-94926632D01*
X103550990Y-94683411D01*
X103662932Y-94413158D01*
X103720000Y-94126260D01*
X103720000Y-93833740D01*
X103662932Y-93546842D01*
X103550990Y-93276589D01*
X103388475Y-93033368D01*
X103181632Y-92826525D01*
X103043804Y-92734431D01*
X106908600Y-92734431D01*
X106908600Y-92939569D01*
X106948620Y-93140765D01*
X107027123Y-93330288D01*
X107141092Y-93500854D01*
X107286146Y-93645908D01*
X107456712Y-93759877D01*
X107646235Y-93838380D01*
X107847431Y-93878400D01*
X108052569Y-93878400D01*
X108253765Y-93838380D01*
X108443288Y-93759877D01*
X108613854Y-93645908D01*
X108758908Y-93500854D01*
X108872877Y-93330288D01*
X108951380Y-93140765D01*
X108991400Y-92939569D01*
X108991400Y-92876441D01*
X113538000Y-92876441D01*
X113538000Y-93051559D01*
X113572164Y-93223312D01*
X113639179Y-93385099D01*
X113736469Y-93530704D01*
X113860296Y-93654531D01*
X114005901Y-93751821D01*
X114167688Y-93818836D01*
X114339441Y-93853000D01*
X114514559Y-93853000D01*
X114686312Y-93818836D01*
X114848099Y-93751821D01*
X114993704Y-93654531D01*
X115117531Y-93530704D01*
X115214821Y-93385099D01*
X115281836Y-93223312D01*
X115316000Y-93051559D01*
X115316000Y-92876441D01*
X115281836Y-92704688D01*
X115214821Y-92542901D01*
X115117531Y-92397296D01*
X114993704Y-92273469D01*
X114848099Y-92176179D01*
X114686312Y-92109164D01*
X114514559Y-92075000D01*
X114339441Y-92075000D01*
X114167688Y-92109164D01*
X114005901Y-92176179D01*
X113860296Y-92273469D01*
X113736469Y-92397296D01*
X113639179Y-92542901D01*
X113572164Y-92704688D01*
X113538000Y-92876441D01*
X108991400Y-92876441D01*
X108991400Y-92734431D01*
X108951380Y-92533235D01*
X108872877Y-92343712D01*
X108758908Y-92173146D01*
X108613854Y-92028092D01*
X108443288Y-91914123D01*
X108253765Y-91835620D01*
X108052569Y-91795600D01*
X107847431Y-91795600D01*
X107646235Y-91835620D01*
X107456712Y-91914123D01*
X107286146Y-92028092D01*
X107141092Y-92173146D01*
X107027123Y-92343712D01*
X106948620Y-92533235D01*
X106908600Y-92734431D01*
X103043804Y-92734431D01*
X103007240Y-92710000D01*
X103181632Y-92593475D01*
X103388475Y-92386632D01*
X103550990Y-92143411D01*
X103662932Y-91873158D01*
X103720000Y-91586260D01*
X103720000Y-91293740D01*
X103706415Y-91225441D01*
X114935000Y-91225441D01*
X114935000Y-91400559D01*
X114969164Y-91572312D01*
X115036179Y-91734099D01*
X115133469Y-91879704D01*
X115257296Y-92003531D01*
X115402901Y-92100821D01*
X115564688Y-92167836D01*
X115736441Y-92202000D01*
X115911559Y-92202000D01*
X116083312Y-92167836D01*
X116245099Y-92100821D01*
X116283803Y-92074960D01*
X116215467Y-92143296D01*
X116118177Y-92288901D01*
X116051162Y-92450688D01*
X116016998Y-92622441D01*
X116016998Y-92797559D01*
X116051162Y-92969312D01*
X116118177Y-93131099D01*
X116215467Y-93276704D01*
X116339294Y-93400531D01*
X116484899Y-93497821D01*
X116646686Y-93564836D01*
X116818439Y-93599000D01*
X116993557Y-93599000D01*
X117165310Y-93564836D01*
X117327097Y-93497821D01*
X117472702Y-93400531D01*
X117596529Y-93276704D01*
X117693819Y-93131099D01*
X117760834Y-92969312D01*
X117794998Y-92797559D01*
X117794998Y-92622441D01*
X117760834Y-92450688D01*
X117693819Y-92288901D01*
X117596529Y-92143296D01*
X117472702Y-92019469D01*
X117327097Y-91922179D01*
X117165310Y-91855164D01*
X116993557Y-91821000D01*
X116818439Y-91821000D01*
X116646686Y-91855164D01*
X116484899Y-91922179D01*
X116446195Y-91948040D01*
X116514531Y-91879704D01*
X116611821Y-91734099D01*
X116678836Y-91572312D01*
X116713000Y-91400559D01*
X116713000Y-91225441D01*
X116678836Y-91053688D01*
X116611821Y-90891901D01*
X116514531Y-90746296D01*
X116390704Y-90622469D01*
X116245099Y-90525179D01*
X116083312Y-90458164D01*
X115911559Y-90424000D01*
X115736441Y-90424000D01*
X115564688Y-90458164D01*
X115402901Y-90525179D01*
X115257296Y-90622469D01*
X115133469Y-90746296D01*
X115036179Y-90891901D01*
X114969164Y-91053688D01*
X114935000Y-91225441D01*
X103706415Y-91225441D01*
X103662932Y-91006842D01*
X103550990Y-90736589D01*
X103388475Y-90493368D01*
X103181632Y-90286525D01*
X103007240Y-90170000D01*
X103138281Y-90082441D01*
X122047000Y-90082441D01*
X122047000Y-90257559D01*
X122081164Y-90429312D01*
X122148179Y-90591099D01*
X122245469Y-90736704D01*
X122369296Y-90860531D01*
X122378850Y-90866915D01*
X122372469Y-90873296D01*
X122275179Y-91018901D01*
X122208164Y-91180688D01*
X122174000Y-91352441D01*
X122174000Y-91527559D01*
X122208164Y-91699312D01*
X122275179Y-91861099D01*
X122372469Y-92006704D01*
X122496296Y-92130531D01*
X122641901Y-92227821D01*
X122803688Y-92294836D01*
X122975441Y-92329000D01*
X123150559Y-92329000D01*
X123322312Y-92294836D01*
X123484099Y-92227821D01*
X123629704Y-92130531D01*
X123753531Y-92006704D01*
X123850821Y-91861099D01*
X123917836Y-91699312D01*
X123952000Y-91527559D01*
X123952000Y-91352441D01*
X123917836Y-91180688D01*
X123850821Y-91018901D01*
X123753531Y-90873296D01*
X123629704Y-90749469D01*
X123620150Y-90743085D01*
X123626531Y-90736704D01*
X123723821Y-90591099D01*
X123790836Y-90429312D01*
X123825000Y-90257559D01*
X123825000Y-90082441D01*
X123790836Y-89910688D01*
X123723821Y-89748901D01*
X123626531Y-89603296D01*
X123502704Y-89479469D01*
X123357099Y-89382179D01*
X123195312Y-89315164D01*
X123023559Y-89281000D01*
X122848441Y-89281000D01*
X122676688Y-89315164D01*
X122514901Y-89382179D01*
X122369296Y-89479469D01*
X122245469Y-89603296D01*
X122148179Y-89748901D01*
X122081164Y-89910688D01*
X122047000Y-90082441D01*
X103138281Y-90082441D01*
X103181632Y-90053475D01*
X103388475Y-89846632D01*
X103550990Y-89603411D01*
X103662932Y-89333158D01*
X103720000Y-89046260D01*
X103720000Y-88753740D01*
X103662932Y-88466842D01*
X103550990Y-88196589D01*
X103388475Y-87953368D01*
X103181632Y-87746525D01*
X103007240Y-87630000D01*
X103181632Y-87513475D01*
X103388475Y-87306632D01*
X103550990Y-87063411D01*
X103662932Y-86793158D01*
X103720000Y-86506260D01*
X103720000Y-86213740D01*
X103662932Y-85926842D01*
X103550990Y-85656589D01*
X103388475Y-85413368D01*
X103358548Y-85383441D01*
X123190000Y-85383441D01*
X123190000Y-85558559D01*
X123224164Y-85730312D01*
X123291179Y-85892099D01*
X123388469Y-86037704D01*
X123512296Y-86161531D01*
X123657901Y-86258821D01*
X123819688Y-86325836D01*
X123991441Y-86360000D01*
X124166559Y-86360000D01*
X124338312Y-86325836D01*
X124500099Y-86258821D01*
X124645704Y-86161531D01*
X124769531Y-86037704D01*
X124866821Y-85892099D01*
X124933836Y-85730312D01*
X124968000Y-85558559D01*
X124968000Y-85383441D01*
X124933836Y-85211688D01*
X124866821Y-85049901D01*
X124769531Y-84904296D01*
X124645704Y-84780469D01*
X124500099Y-84683179D01*
X124338312Y-84616164D01*
X124166559Y-84582000D01*
X123991441Y-84582000D01*
X123819688Y-84616164D01*
X123657901Y-84683179D01*
X123512296Y-84780469D01*
X123388469Y-84904296D01*
X123291179Y-85049901D01*
X123224164Y-85211688D01*
X123190000Y-85383441D01*
X103358548Y-85383441D01*
X103181632Y-85206525D01*
X102938411Y-85044010D01*
X102668158Y-84932068D01*
X102381260Y-84875000D01*
X102088740Y-84875000D01*
X101801842Y-84932068D01*
X101531589Y-85044010D01*
X101288368Y-85206525D01*
X101081525Y-85413368D01*
X100965000Y-85587760D01*
X100848475Y-85413368D01*
X100641632Y-85206525D01*
X100398411Y-85044010D01*
X100128158Y-84932068D01*
X99841260Y-84875000D01*
X99548740Y-84875000D01*
X99261842Y-84932068D01*
X98991589Y-85044010D01*
X98748368Y-85206525D01*
X98611570Y-85343323D01*
X98611570Y-84367441D01*
X127381000Y-84367441D01*
X127381000Y-84542559D01*
X127415164Y-84714312D01*
X127482179Y-84876099D01*
X127579469Y-85021704D01*
X127703296Y-85145531D01*
X127848901Y-85242821D01*
X128010688Y-85309836D01*
X128182441Y-85344000D01*
X128357559Y-85344000D01*
X128529312Y-85309836D01*
X128691099Y-85242821D01*
X128836704Y-85145531D01*
X128905000Y-85077235D01*
X128973296Y-85145531D01*
X129118901Y-85242821D01*
X129280688Y-85309836D01*
X129452441Y-85344000D01*
X129627559Y-85344000D01*
X129799312Y-85309836D01*
X129961099Y-85242821D01*
X130106704Y-85145531D01*
X130230531Y-85021704D01*
X130327821Y-84876099D01*
X130394836Y-84714312D01*
X130429000Y-84542559D01*
X130429000Y-84367441D01*
X130394836Y-84195688D01*
X130327821Y-84033901D01*
X130230531Y-83888296D01*
X130106704Y-83764469D01*
X129961099Y-83667179D01*
X129799312Y-83600164D01*
X129627559Y-83566000D01*
X129452441Y-83566000D01*
X129280688Y-83600164D01*
X129118901Y-83667179D01*
X128973296Y-83764469D01*
X128905000Y-83832765D01*
X128836704Y-83764469D01*
X128691099Y-83667179D01*
X128529312Y-83600164D01*
X128357559Y-83566000D01*
X128182441Y-83566000D01*
X128010688Y-83600164D01*
X127848901Y-83667179D01*
X127703296Y-83764469D01*
X127579469Y-83888296D01*
X127482179Y-84033901D01*
X127415164Y-84195688D01*
X127381000Y-84367441D01*
X98611570Y-84367441D01*
X98611570Y-83312000D01*
X132620244Y-83312000D01*
X132619141Y-83313651D01*
G37*
X132619141Y-83313651D02*
X132455688Y-83346164D01*
X132293901Y-83413179D01*
X132148296Y-83510469D01*
X132024469Y-83634296D01*
X131927179Y-83779901D01*
X131860164Y-83941688D01*
X131826000Y-84113441D01*
X131826000Y-84288559D01*
X131860164Y-84460312D01*
X131927179Y-84622099D01*
X132024469Y-84767704D01*
X132148296Y-84891531D01*
X132293901Y-84988821D01*
X132455688Y-85055836D01*
X132627441Y-85090000D01*
X132802559Y-85090000D01*
X132842000Y-85082155D01*
X132842000Y-85177559D01*
X132850662Y-85221103D01*
X132786469Y-85285296D01*
X132689179Y-85430901D01*
X132622164Y-85592688D01*
X132588000Y-85764441D01*
X132588000Y-85939559D01*
X132622164Y-86111312D01*
X132689179Y-86273099D01*
X132786469Y-86418704D01*
X132910296Y-86542531D01*
X133055901Y-86639821D01*
X133217688Y-86706836D01*
X133234674Y-86710215D01*
X133294469Y-86799704D01*
X133418296Y-86923531D01*
X133563901Y-87020821D01*
X133725688Y-87087836D01*
X133858000Y-87114155D01*
X133858000Y-93250244D01*
X133771099Y-93192179D01*
X133609312Y-93125164D01*
X133437559Y-93091000D01*
X133262441Y-93091000D01*
X133216954Y-93100048D01*
X133188836Y-92958688D01*
X133121821Y-92796901D01*
X133024531Y-92651296D01*
X132900704Y-92527469D01*
X132755099Y-92430179D01*
X132593312Y-92363164D01*
X132421559Y-92329000D01*
X132246441Y-92329000D01*
X132074688Y-92363164D01*
X131912901Y-92430179D01*
X131767296Y-92527469D01*
X131643469Y-92651296D01*
X131546179Y-92796901D01*
X131479164Y-92958688D01*
X131445000Y-93130441D01*
X131445000Y-93251107D01*
X131439688Y-93252164D01*
X131277901Y-93319179D01*
X131191000Y-93377244D01*
X131191000Y-91440000D01*
X131188560Y-91415224D01*
X131181333Y-91391399D01*
X131169597Y-91369443D01*
X131153803Y-91350197D01*
X131134557Y-91334403D01*
X131112601Y-91322667D01*
X131088776Y-91315440D01*
X131064000Y-91313000D01*
X130755157Y-91313000D01*
X130728838Y-91180688D01*
X130661823Y-91018901D01*
X130564533Y-90873296D01*
X130440706Y-90749469D01*
X130304998Y-90658792D01*
X130304998Y-90593439D01*
X130270834Y-90421686D01*
X130203819Y-90259899D01*
X130106529Y-90114294D01*
X130100234Y-90107999D01*
X130106529Y-90101704D01*
X130203819Y-89956099D01*
X130270834Y-89794312D01*
X130304998Y-89622559D01*
X130304998Y-89447441D01*
X130270834Y-89275688D01*
X130203819Y-89113901D01*
X130106529Y-88968296D01*
X130101733Y-88963500D01*
X130106529Y-88958704D01*
X130203819Y-88813099D01*
X130270834Y-88651312D01*
X130304998Y-88479559D01*
X130304998Y-88433189D01*
X130342099Y-88417821D01*
X130487704Y-88320531D01*
X130611531Y-88196704D01*
X130708821Y-88051099D01*
X130775836Y-87889312D01*
X130810000Y-87717559D01*
X130810000Y-87542441D01*
X130775836Y-87370688D01*
X130708821Y-87208901D01*
X130611531Y-87063296D01*
X130487704Y-86939469D01*
X130342099Y-86842179D01*
X130180312Y-86775164D01*
X130008559Y-86741000D01*
X129833441Y-86741000D01*
X129661688Y-86775164D01*
X129499901Y-86842179D01*
X129354296Y-86939469D01*
X129230469Y-87063296D01*
X129133179Y-87208901D01*
X129066164Y-87370688D01*
X129032000Y-87542441D01*
X129032000Y-87588811D01*
X128994899Y-87604179D01*
X128849294Y-87701469D01*
X128725467Y-87825296D01*
X128628177Y-87970901D01*
X128587418Y-88069300D01*
X128483901Y-88112179D01*
X128338296Y-88209469D01*
X128270000Y-88277765D01*
X128201704Y-88209469D01*
X128056099Y-88112179D01*
X127954081Y-88069921D01*
X127911823Y-87967903D01*
X127814533Y-87822298D01*
X127690706Y-87698471D01*
X127545101Y-87601181D01*
X127447323Y-87560679D01*
X127406821Y-87462901D01*
X127378953Y-87421194D01*
X127478439Y-87440983D01*
X127653557Y-87440983D01*
X127825310Y-87406819D01*
X127987097Y-87339804D01*
X128132702Y-87242514D01*
X128256529Y-87118687D01*
X128353819Y-86973082D01*
X128420834Y-86811295D01*
X128454998Y-86639542D01*
X128454998Y-86464424D01*
X128420834Y-86292671D01*
X128353819Y-86130884D01*
X128256529Y-85985279D01*
X128132702Y-85861452D01*
X127987097Y-85764162D01*
X127825310Y-85697147D01*
X127653557Y-85662983D01*
X127478439Y-85662983D01*
X127306686Y-85697147D01*
X127144899Y-85764162D01*
X126999294Y-85861452D01*
X126875467Y-85985279D01*
X126778177Y-86130884D01*
X126711162Y-86292671D01*
X126676998Y-86464424D01*
X126676998Y-86639542D01*
X126711162Y-86811295D01*
X126778177Y-86973082D01*
X126806045Y-87014789D01*
X126706559Y-86995000D01*
X126670602Y-86995000D01*
X126552439Y-86876837D01*
X126406834Y-86779547D01*
X126245047Y-86712532D01*
X126073294Y-86678368D01*
X125898176Y-86678368D01*
X125726423Y-86712532D01*
X125564636Y-86779547D01*
X125419031Y-86876837D01*
X125295204Y-87000664D01*
X125197914Y-87146269D01*
X125130899Y-87308056D01*
X125096735Y-87479809D01*
X125096735Y-87654927D01*
X125130899Y-87826680D01*
X125197914Y-87988467D01*
X125295204Y-88134072D01*
X125419031Y-88257899D01*
X125564636Y-88355189D01*
X125726423Y-88422204D01*
X125898176Y-88456368D01*
X125934133Y-88456368D01*
X126052296Y-88574531D01*
X126197901Y-88671821D01*
X126295679Y-88712323D01*
X126336181Y-88810101D01*
X126433471Y-88955706D01*
X126439766Y-88962001D01*
X126433471Y-88968296D01*
X126336181Y-89113901D01*
X126269166Y-89275688D01*
X126235002Y-89447441D01*
X126235002Y-89622559D01*
X126269166Y-89794312D01*
X126336181Y-89956099D01*
X126433471Y-90101704D01*
X126439766Y-90107999D01*
X126436469Y-90111296D01*
X126339179Y-90256901D01*
X126315218Y-90314748D01*
X126232688Y-90331164D01*
X126070901Y-90398179D01*
X125925296Y-90495469D01*
X125801469Y-90619296D01*
X125704179Y-90764901D01*
X125637164Y-90926688D01*
X125603000Y-91098441D01*
X125603000Y-91223010D01*
X125577313Y-91217901D01*
X125402195Y-91217901D01*
X125230442Y-91252065D01*
X125068655Y-91319080D01*
X124923050Y-91416370D01*
X124799223Y-91540197D01*
X124701933Y-91685802D01*
X124634918Y-91847589D01*
X124600754Y-92019342D01*
X124600754Y-92194460D01*
X124634918Y-92366213D01*
X124701933Y-92528000D01*
X124799223Y-92673605D01*
X124923050Y-92797432D01*
X125068655Y-92894722D01*
X125230442Y-92961737D01*
X125402195Y-92995901D01*
X125577313Y-92995901D01*
X125603000Y-92990792D01*
X125603000Y-93953965D01*
X125569121Y-94035755D01*
X125534957Y-94207508D01*
X125534957Y-94382626D01*
X125569121Y-94554379D01*
X125603000Y-94636169D01*
X125603000Y-95250000D01*
X125605440Y-95274776D01*
X125612667Y-95298601D01*
X125624403Y-95320557D01*
X125640197Y-95339803D01*
X125659443Y-95355597D01*
X125681399Y-95367333D01*
X125705224Y-95374560D01*
X125730000Y-95377000D01*
X126284048Y-95377000D01*
X126272164Y-95405690D01*
X126238000Y-95577443D01*
X126238000Y-95631000D01*
X125730000Y-95631000D01*
X125705224Y-95633440D01*
X125681399Y-95640667D01*
X125659443Y-95652403D01*
X125640197Y-95668197D01*
X125624403Y-95687443D01*
X125612667Y-95709399D01*
X125605440Y-95733224D01*
X125603000Y-95758000D01*
X125603000Y-99568000D01*
X98611570Y-99568000D01*
X98611570Y-97536677D01*
X98748368Y-97673475D01*
X98991589Y-97835990D01*
X99261842Y-97947932D01*
X99548740Y-98005000D01*
X99841260Y-98005000D01*
X100128158Y-97947932D01*
X100398411Y-97835990D01*
X100641632Y-97673475D01*
X100773487Y-97541620D01*
X100795498Y-97614180D01*
X100854463Y-97724494D01*
X100933815Y-97821185D01*
X101030506Y-97900537D01*
X101140820Y-97959502D01*
X101260518Y-97995812D01*
X101385000Y-98008072D01*
X101949250Y-98005000D01*
X102108000Y-97846250D01*
X102108000Y-96647000D01*
X102362000Y-96647000D01*
X102362000Y-97846250D01*
X102520750Y-98005000D01*
X103085000Y-98008072D01*
X103209482Y-97995812D01*
X103329180Y-97959502D01*
X103439494Y-97900537D01*
X103536185Y-97821185D01*
X103615537Y-97724494D01*
X103674502Y-97614180D01*
X103710812Y-97494482D01*
X103723072Y-97370000D01*
X103722726Y-97306431D01*
X113258600Y-97306431D01*
X113258600Y-97511569D01*
X113298620Y-97712765D01*
X113377123Y-97902288D01*
X113491092Y-98072854D01*
X113636146Y-98217908D01*
X113806712Y-98331877D01*
X113996235Y-98410380D01*
X114197431Y-98450400D01*
X114402569Y-98450400D01*
X114603765Y-98410380D01*
X114774074Y-98339836D01*
X114906146Y-98471908D01*
X115076712Y-98585877D01*
X115266235Y-98664380D01*
X115467431Y-98704400D01*
X115672569Y-98704400D01*
X115873765Y-98664380D01*
X116044074Y-98593836D01*
X116176146Y-98725908D01*
X116346712Y-98839877D01*
X116536235Y-98918380D01*
X116737431Y-98958400D01*
X116942569Y-98958400D01*
X117143765Y-98918380D01*
X117333288Y-98839877D01*
X117503854Y-98725908D01*
X117648908Y-98580854D01*
X117762877Y-98410288D01*
X117841380Y-98220765D01*
X117881400Y-98019569D01*
X117881400Y-97941431D01*
X118338600Y-97941431D01*
X118338600Y-98146569D01*
X118378620Y-98347765D01*
X118457123Y-98537288D01*
X118571092Y-98707854D01*
X118716146Y-98852908D01*
X118886712Y-98966877D01*
X119076235Y-99045380D01*
X119277431Y-99085400D01*
X119482569Y-99085400D01*
X119683765Y-99045380D01*
X119873288Y-98966877D01*
X120043854Y-98852908D01*
X120175926Y-98720836D01*
X120346235Y-98791380D01*
X120547431Y-98831400D01*
X120752569Y-98831400D01*
X120953765Y-98791380D01*
X121143288Y-98712877D01*
X121313854Y-98598908D01*
X121445926Y-98466836D01*
X121616235Y-98537380D01*
X121817431Y-98577400D01*
X122022569Y-98577400D01*
X122223765Y-98537380D01*
X122413288Y-98458877D01*
X122583854Y-98344908D01*
X122728908Y-98199854D01*
X122842877Y-98029288D01*
X122921380Y-97839765D01*
X122961400Y-97638569D01*
X122961400Y-97433431D01*
X122921380Y-97232235D01*
X122842877Y-97042712D01*
X122728908Y-96872146D01*
X122583854Y-96727092D01*
X122413288Y-96613123D01*
X122223765Y-96534620D01*
X122022569Y-96494600D01*
X121817431Y-96494600D01*
X121616235Y-96534620D01*
X121426712Y-96613123D01*
X121256146Y-96727092D01*
X121124074Y-96859164D01*
X120953765Y-96788620D01*
X120752569Y-96748600D01*
X120547431Y-96748600D01*
X120346235Y-96788620D01*
X120156712Y-96867123D01*
X119986146Y-96981092D01*
X119854074Y-97113164D01*
X119683765Y-97042620D01*
X119482569Y-97002600D01*
X119277431Y-97002600D01*
X119076235Y-97042620D01*
X118886712Y-97121123D01*
X118716146Y-97235092D01*
X118571092Y-97380146D01*
X118457123Y-97550712D01*
X118378620Y-97740235D01*
X118338600Y-97941431D01*
X117881400Y-97941431D01*
X117881400Y-97814431D01*
X117841380Y-97613235D01*
X117762877Y-97423712D01*
X117648908Y-97253146D01*
X117503854Y-97108092D01*
X117333288Y-96994123D01*
X117143765Y-96915620D01*
X116942569Y-96875600D01*
X116737431Y-96875600D01*
X116536235Y-96915620D01*
X116365926Y-96986164D01*
X116233854Y-96854092D01*
X116063288Y-96740123D01*
X115873765Y-96661620D01*
X115672569Y-96621600D01*
X115467431Y-96621600D01*
X115266235Y-96661620D01*
X115095926Y-96732164D01*
X114963854Y-96600092D01*
X114793288Y-96486123D01*
X114603765Y-96407620D01*
X114402569Y-96367600D01*
X114197431Y-96367600D01*
X113996235Y-96407620D01*
X113806712Y-96486123D01*
X113636146Y-96600092D01*
X113491092Y-96745146D01*
X113377123Y-96915712D01*
X113298620Y-97105235D01*
X113258600Y-97306431D01*
X103722726Y-97306431D01*
X103720000Y-96805750D01*
X103561250Y-96647000D01*
X102362000Y-96647000D01*
X102108000Y-96647000D01*
X102088000Y-96647000D01*
X102088000Y-96393000D01*
X102108000Y-96393000D01*
X102108000Y-96373000D01*
X102362000Y-96373000D01*
X102362000Y-96393000D01*
X103561250Y-96393000D01*
X103720000Y-96234250D01*
X103723072Y-95670000D01*
X103710812Y-95545518D01*
X103674502Y-95425820D01*
X103615537Y-95315506D01*
X103536185Y-95218815D01*
X103439494Y-95139463D01*
X103329180Y-95080498D01*
X103256620Y-95058487D01*
X103388475Y-94926632D01*
X103550990Y-94683411D01*
X103662932Y-94413158D01*
X103720000Y-94126260D01*
X103720000Y-93833740D01*
X103662932Y-93546842D01*
X103550990Y-93276589D01*
X103388475Y-93033368D01*
X103181632Y-92826525D01*
X103043804Y-92734431D01*
X106908600Y-92734431D01*
X106908600Y-92939569D01*
X106948620Y-93140765D01*
X107027123Y-93330288D01*
X107141092Y-93500854D01*
X107286146Y-93645908D01*
X107456712Y-93759877D01*
X107646235Y-93838380D01*
X107847431Y-93878400D01*
X108052569Y-93878400D01*
X108253765Y-93838380D01*
X108443288Y-93759877D01*
X108613854Y-93645908D01*
X108758908Y-93500854D01*
X108872877Y-93330288D01*
X108951380Y-93140765D01*
X108991400Y-92939569D01*
X108991400Y-92876441D01*
X113538000Y-92876441D01*
X113538000Y-93051559D01*
X113572164Y-93223312D01*
X113639179Y-93385099D01*
X113736469Y-93530704D01*
X113860296Y-93654531D01*
X114005901Y-93751821D01*
X114167688Y-93818836D01*
X114339441Y-93853000D01*
X114514559Y-93853000D01*
X114686312Y-93818836D01*
X114848099Y-93751821D01*
X114993704Y-93654531D01*
X115117531Y-93530704D01*
X115214821Y-93385099D01*
X115281836Y-93223312D01*
X115316000Y-93051559D01*
X115316000Y-92876441D01*
X115281836Y-92704688D01*
X115214821Y-92542901D01*
X115117531Y-92397296D01*
X114993704Y-92273469D01*
X114848099Y-92176179D01*
X114686312Y-92109164D01*
X114514559Y-92075000D01*
X114339441Y-92075000D01*
X114167688Y-92109164D01*
X114005901Y-92176179D01*
X113860296Y-92273469D01*
X113736469Y-92397296D01*
X113639179Y-92542901D01*
X113572164Y-92704688D01*
X113538000Y-92876441D01*
X108991400Y-92876441D01*
X108991400Y-92734431D01*
X108951380Y-92533235D01*
X108872877Y-92343712D01*
X108758908Y-92173146D01*
X108613854Y-92028092D01*
X108443288Y-91914123D01*
X108253765Y-91835620D01*
X108052569Y-91795600D01*
X107847431Y-91795600D01*
X107646235Y-91835620D01*
X107456712Y-91914123D01*
X107286146Y-92028092D01*
X107141092Y-92173146D01*
X107027123Y-92343712D01*
X106948620Y-92533235D01*
X106908600Y-92734431D01*
X103043804Y-92734431D01*
X103007240Y-92710000D01*
X103181632Y-92593475D01*
X103388475Y-92386632D01*
X103550990Y-92143411D01*
X103662932Y-91873158D01*
X103720000Y-91586260D01*
X103720000Y-91293740D01*
X103706415Y-91225441D01*
X114935000Y-91225441D01*
X114935000Y-91400559D01*
X114969164Y-91572312D01*
X115036179Y-91734099D01*
X115133469Y-91879704D01*
X115257296Y-92003531D01*
X115402901Y-92100821D01*
X115564688Y-92167836D01*
X115736441Y-92202000D01*
X115911559Y-92202000D01*
X116083312Y-92167836D01*
X116245099Y-92100821D01*
X116283803Y-92074960D01*
X116215467Y-92143296D01*
X116118177Y-92288901D01*
X116051162Y-92450688D01*
X116016998Y-92622441D01*
X116016998Y-92797559D01*
X116051162Y-92969312D01*
X116118177Y-93131099D01*
X116215467Y-93276704D01*
X116339294Y-93400531D01*
X116484899Y-93497821D01*
X116646686Y-93564836D01*
X116818439Y-93599000D01*
X116993557Y-93599000D01*
X117165310Y-93564836D01*
X117327097Y-93497821D01*
X117472702Y-93400531D01*
X117596529Y-93276704D01*
X117693819Y-93131099D01*
X117760834Y-92969312D01*
X117794998Y-92797559D01*
X117794998Y-92622441D01*
X117760834Y-92450688D01*
X117693819Y-92288901D01*
X117596529Y-92143296D01*
X117472702Y-92019469D01*
X117327097Y-91922179D01*
X117165310Y-91855164D01*
X116993557Y-91821000D01*
X116818439Y-91821000D01*
X116646686Y-91855164D01*
X116484899Y-91922179D01*
X116446195Y-91948040D01*
X116514531Y-91879704D01*
X116611821Y-91734099D01*
X116678836Y-91572312D01*
X116713000Y-91400559D01*
X116713000Y-91225441D01*
X116678836Y-91053688D01*
X116611821Y-90891901D01*
X116514531Y-90746296D01*
X116390704Y-90622469D01*
X116245099Y-90525179D01*
X116083312Y-90458164D01*
X115911559Y-90424000D01*
X115736441Y-90424000D01*
X115564688Y-90458164D01*
X115402901Y-90525179D01*
X115257296Y-90622469D01*
X115133469Y-90746296D01*
X115036179Y-90891901D01*
X114969164Y-91053688D01*
X114935000Y-91225441D01*
X103706415Y-91225441D01*
X103662932Y-91006842D01*
X103550990Y-90736589D01*
X103388475Y-90493368D01*
X103181632Y-90286525D01*
X103007240Y-90170000D01*
X103138281Y-90082441D01*
X122047000Y-90082441D01*
X122047000Y-90257559D01*
X122081164Y-90429312D01*
X122148179Y-90591099D01*
X122245469Y-90736704D01*
X122369296Y-90860531D01*
X122378850Y-90866915D01*
X122372469Y-90873296D01*
X122275179Y-91018901D01*
X122208164Y-91180688D01*
X122174000Y-91352441D01*
X122174000Y-91527559D01*
X122208164Y-91699312D01*
X122275179Y-91861099D01*
X122372469Y-92006704D01*
X122496296Y-92130531D01*
X122641901Y-92227821D01*
X122803688Y-92294836D01*
X122975441Y-92329000D01*
X123150559Y-92329000D01*
X123322312Y-92294836D01*
X123484099Y-92227821D01*
X123629704Y-92130531D01*
X123753531Y-92006704D01*
X123850821Y-91861099D01*
X123917836Y-91699312D01*
X123952000Y-91527559D01*
X123952000Y-91352441D01*
X123917836Y-91180688D01*
X123850821Y-91018901D01*
X123753531Y-90873296D01*
X123629704Y-90749469D01*
X123620150Y-90743085D01*
X123626531Y-90736704D01*
X123723821Y-90591099D01*
X123790836Y-90429312D01*
X123825000Y-90257559D01*
X123825000Y-90082441D01*
X123790836Y-89910688D01*
X123723821Y-89748901D01*
X123626531Y-89603296D01*
X123502704Y-89479469D01*
X123357099Y-89382179D01*
X123195312Y-89315164D01*
X123023559Y-89281000D01*
X122848441Y-89281000D01*
X122676688Y-89315164D01*
X122514901Y-89382179D01*
X122369296Y-89479469D01*
X122245469Y-89603296D01*
X122148179Y-89748901D01*
X122081164Y-89910688D01*
X122047000Y-90082441D01*
X103138281Y-90082441D01*
X103181632Y-90053475D01*
X103388475Y-89846632D01*
X103550990Y-89603411D01*
X103662932Y-89333158D01*
X103720000Y-89046260D01*
X103720000Y-88753740D01*
X103662932Y-88466842D01*
X103550990Y-88196589D01*
X103388475Y-87953368D01*
X103181632Y-87746525D01*
X103007240Y-87630000D01*
X103181632Y-87513475D01*
X103388475Y-87306632D01*
X103550990Y-87063411D01*
X103662932Y-86793158D01*
X103720000Y-86506260D01*
X103720000Y-86213740D01*
X103662932Y-85926842D01*
X103550990Y-85656589D01*
X103388475Y-85413368D01*
X103358548Y-85383441D01*
X123190000Y-85383441D01*
X123190000Y-85558559D01*
X123224164Y-85730312D01*
X123291179Y-85892099D01*
X123388469Y-86037704D01*
X123512296Y-86161531D01*
X123657901Y-86258821D01*
X123819688Y-86325836D01*
X123991441Y-86360000D01*
X124166559Y-86360000D01*
X124338312Y-86325836D01*
X124500099Y-86258821D01*
X124645704Y-86161531D01*
X124769531Y-86037704D01*
X124866821Y-85892099D01*
X124933836Y-85730312D01*
X124968000Y-85558559D01*
X124968000Y-85383441D01*
X124933836Y-85211688D01*
X124866821Y-85049901D01*
X124769531Y-84904296D01*
X124645704Y-84780469D01*
X124500099Y-84683179D01*
X124338312Y-84616164D01*
X124166559Y-84582000D01*
X123991441Y-84582000D01*
X123819688Y-84616164D01*
X123657901Y-84683179D01*
X123512296Y-84780469D01*
X123388469Y-84904296D01*
X123291179Y-85049901D01*
X123224164Y-85211688D01*
X123190000Y-85383441D01*
X103358548Y-85383441D01*
X103181632Y-85206525D01*
X102938411Y-85044010D01*
X102668158Y-84932068D01*
X102381260Y-84875000D01*
X102088740Y-84875000D01*
X101801842Y-84932068D01*
X101531589Y-85044010D01*
X101288368Y-85206525D01*
X101081525Y-85413368D01*
X100965000Y-85587760D01*
X100848475Y-85413368D01*
X100641632Y-85206525D01*
X100398411Y-85044010D01*
X100128158Y-84932068D01*
X99841260Y-84875000D01*
X99548740Y-84875000D01*
X99261842Y-84932068D01*
X98991589Y-85044010D01*
X98748368Y-85206525D01*
X98611570Y-85343323D01*
X98611570Y-84367441D01*
X127381000Y-84367441D01*
X127381000Y-84542559D01*
X127415164Y-84714312D01*
X127482179Y-84876099D01*
X127579469Y-85021704D01*
X127703296Y-85145531D01*
X127848901Y-85242821D01*
X128010688Y-85309836D01*
X128182441Y-85344000D01*
X128357559Y-85344000D01*
X128529312Y-85309836D01*
X128691099Y-85242821D01*
X128836704Y-85145531D01*
X128905000Y-85077235D01*
X128973296Y-85145531D01*
X129118901Y-85242821D01*
X129280688Y-85309836D01*
X129452441Y-85344000D01*
X129627559Y-85344000D01*
X129799312Y-85309836D01*
X129961099Y-85242821D01*
X130106704Y-85145531D01*
X130230531Y-85021704D01*
X130327821Y-84876099D01*
X130394836Y-84714312D01*
X130429000Y-84542559D01*
X130429000Y-84367441D01*
X130394836Y-84195688D01*
X130327821Y-84033901D01*
X130230531Y-83888296D01*
X130106704Y-83764469D01*
X129961099Y-83667179D01*
X129799312Y-83600164D01*
X129627559Y-83566000D01*
X129452441Y-83566000D01*
X129280688Y-83600164D01*
X129118901Y-83667179D01*
X128973296Y-83764469D01*
X128905000Y-83832765D01*
X128836704Y-83764469D01*
X128691099Y-83667179D01*
X128529312Y-83600164D01*
X128357559Y-83566000D01*
X128182441Y-83566000D01*
X128010688Y-83600164D01*
X127848901Y-83667179D01*
X127703296Y-83764469D01*
X127579469Y-83888296D01*
X127482179Y-84033901D01*
X127415164Y-84195688D01*
X127381000Y-84367441D01*
X98611570Y-84367441D01*
X98611570Y-83312000D01*
X132620244Y-83312000D01*
X132619141Y-83313651D01*
G36*
X129534688Y-92363164D02*
G01*
X129372901Y-92430179D01*
X129227296Y-92527469D01*
X129103469Y-92651296D01*
X129006179Y-92796901D01*
X128939164Y-92958688D01*
X128905000Y-93130441D01*
X128905000Y-93305559D01*
X128939164Y-93477312D01*
X129006179Y-93639099D01*
X129103469Y-93784704D01*
X129227296Y-93908531D01*
X129372901Y-94005821D01*
X129534688Y-94072836D01*
X129706441Y-94107000D01*
X129881559Y-94107000D01*
X129921000Y-94099155D01*
X129921000Y-94234000D01*
X129923440Y-94258776D01*
X129930667Y-94282601D01*
X129942403Y-94304557D01*
X129958197Y-94323803D01*
X129977443Y-94339597D01*
X129999399Y-94351333D01*
X130023224Y-94358560D01*
X130048000Y-94361000D01*
X130175000Y-94361000D01*
X130175000Y-97442107D01*
X130169688Y-97443164D01*
X130007901Y-97510179D01*
X129862296Y-97607469D01*
X129738469Y-97731296D01*
X129641179Y-97876901D01*
X129574164Y-98038688D01*
X129540000Y-98210441D01*
X129540000Y-98385559D01*
X129549793Y-98434793D01*
X129500559Y-98425000D01*
X129325441Y-98425000D01*
X129153688Y-98459164D01*
X128991901Y-98526179D01*
X128916677Y-98576442D01*
X128836704Y-98496469D01*
X128691099Y-98399179D01*
X128529312Y-98332164D01*
X128357559Y-98298000D01*
X128182441Y-98298000D01*
X128010688Y-98332164D01*
X127848901Y-98399179D01*
X127703296Y-98496469D01*
X127623323Y-98576442D01*
X127548099Y-98526179D01*
X127386312Y-98459164D01*
X127214559Y-98425000D01*
X127039441Y-98425000D01*
X126867688Y-98459164D01*
X126705901Y-98526179D01*
X126619000Y-98584244D01*
X126619000Y-96394758D01*
X126705901Y-96452823D01*
X126867688Y-96519838D01*
X127039441Y-96554002D01*
X127214559Y-96554002D01*
X127386312Y-96519838D01*
X127548099Y-96452823D01*
X127693704Y-96355533D01*
X127817531Y-96231706D01*
X127914821Y-96086101D01*
X127981836Y-95924314D01*
X128007203Y-95796787D01*
X128137688Y-95850836D01*
X128309441Y-95885000D01*
X128484559Y-95885000D01*
X128656312Y-95850836D01*
X128818099Y-95783821D01*
X128963704Y-95686531D01*
X129087531Y-95562704D01*
X129184821Y-95417099D01*
X129251836Y-95255312D01*
X129286000Y-95083559D01*
X129286000Y-94908441D01*
X129251836Y-94736688D01*
X129184821Y-94574901D01*
X129087531Y-94429296D01*
X128963704Y-94305469D01*
X128818099Y-94208179D01*
X128656312Y-94141164D01*
X128484559Y-94107000D01*
X128309441Y-94107000D01*
X128137688Y-94141164D01*
X127975901Y-94208179D01*
X127830296Y-94305469D01*
X127706469Y-94429296D01*
X127609179Y-94574901D01*
X127542164Y-94736688D01*
X127516797Y-94864215D01*
X127386312Y-94810166D01*
X127214559Y-94776002D01*
X127171797Y-94776002D01*
X127211778Y-94716166D01*
X127278793Y-94554379D01*
X127312957Y-94382626D01*
X127312957Y-94207508D01*
X127278793Y-94035755D01*
X127211778Y-93873968D01*
X127114488Y-93728363D01*
X126990661Y-93604536D01*
X126845056Y-93507246D01*
X126683269Y-93440231D01*
X126619000Y-93427447D01*
X126619000Y-93345000D01*
X128270000Y-93345000D01*
X128294776Y-93342560D01*
X128318601Y-93335333D01*
X128340557Y-93323597D01*
X128359803Y-93307803D01*
X128375597Y-93288557D01*
X128387333Y-93266601D01*
X128394560Y-93242776D01*
X128397000Y-93218000D01*
X128397000Y-92329000D01*
X129706441Y-92329000D01*
X129534688Y-92363164D01*
G37*
X129534688Y-92363164D02*
X129372901Y-92430179D01*
X129227296Y-92527469D01*
X129103469Y-92651296D01*
X129006179Y-92796901D01*
X128939164Y-92958688D01*
X128905000Y-93130441D01*
X128905000Y-93305559D01*
X128939164Y-93477312D01*
X129006179Y-93639099D01*
X129103469Y-93784704D01*
X129227296Y-93908531D01*
X129372901Y-94005821D01*
X129534688Y-94072836D01*
X129706441Y-94107000D01*
X129881559Y-94107000D01*
X129921000Y-94099155D01*
X129921000Y-94234000D01*
X129923440Y-94258776D01*
X129930667Y-94282601D01*
X129942403Y-94304557D01*
X129958197Y-94323803D01*
X129977443Y-94339597D01*
X129999399Y-94351333D01*
X130023224Y-94358560D01*
X130048000Y-94361000D01*
X130175000Y-94361000D01*
X130175000Y-97442107D01*
X130169688Y-97443164D01*
X130007901Y-97510179D01*
X129862296Y-97607469D01*
X129738469Y-97731296D01*
X129641179Y-97876901D01*
X129574164Y-98038688D01*
X129540000Y-98210441D01*
X129540000Y-98385559D01*
X129549793Y-98434793D01*
X129500559Y-98425000D01*
X129325441Y-98425000D01*
X129153688Y-98459164D01*
X128991901Y-98526179D01*
X128916677Y-98576442D01*
X128836704Y-98496469D01*
X128691099Y-98399179D01*
X128529312Y-98332164D01*
X128357559Y-98298000D01*
X128182441Y-98298000D01*
X128010688Y-98332164D01*
X127848901Y-98399179D01*
X127703296Y-98496469D01*
X127623323Y-98576442D01*
X127548099Y-98526179D01*
X127386312Y-98459164D01*
X127214559Y-98425000D01*
X127039441Y-98425000D01*
X126867688Y-98459164D01*
X126705901Y-98526179D01*
X126619000Y-98584244D01*
X126619000Y-96394758D01*
X126705901Y-96452823D01*
X126867688Y-96519838D01*
X127039441Y-96554002D01*
X127214559Y-96554002D01*
X127386312Y-96519838D01*
X127548099Y-96452823D01*
X127693704Y-96355533D01*
X127817531Y-96231706D01*
X127914821Y-96086101D01*
X127981836Y-95924314D01*
X128007203Y-95796787D01*
X128137688Y-95850836D01*
X128309441Y-95885000D01*
X128484559Y-95885000D01*
X128656312Y-95850836D01*
X128818099Y-95783821D01*
X128963704Y-95686531D01*
X129087531Y-95562704D01*
X129184821Y-95417099D01*
X129251836Y-95255312D01*
X129286000Y-95083559D01*
X129286000Y-94908441D01*
X129251836Y-94736688D01*
X129184821Y-94574901D01*
X129087531Y-94429296D01*
X128963704Y-94305469D01*
X128818099Y-94208179D01*
X128656312Y-94141164D01*
X128484559Y-94107000D01*
X128309441Y-94107000D01*
X128137688Y-94141164D01*
X127975901Y-94208179D01*
X127830296Y-94305469D01*
X127706469Y-94429296D01*
X127609179Y-94574901D01*
X127542164Y-94736688D01*
X127516797Y-94864215D01*
X127386312Y-94810166D01*
X127214559Y-94776002D01*
X127171797Y-94776002D01*
X127211778Y-94716166D01*
X127278793Y-94554379D01*
X127312957Y-94382626D01*
X127312957Y-94207508D01*
X127278793Y-94035755D01*
X127211778Y-93873968D01*
X127114488Y-93728363D01*
X126990661Y-93604536D01*
X126845056Y-93507246D01*
X126683269Y-93440231D01*
X126619000Y-93427447D01*
X126619000Y-93345000D01*
X128270000Y-93345000D01*
X128294776Y-93342560D01*
X128318601Y-93335333D01*
X128340557Y-93323597D01*
X128359803Y-93307803D01*
X128375597Y-93288557D01*
X128387333Y-93266601D01*
X128394560Y-93242776D01*
X128397000Y-93218000D01*
X128397000Y-92329000D01*
X129706441Y-92329000D01*
X129534688Y-92363164D01*
%TD*%
M02*
