%TF.GenerationSoftware,KiCad,Pcbnew,(5.1.6)-1*%
%TF.CreationDate,2020-07-26T08:56:46-05:00*%
%TF.ProjectId,nanoRT,6e616e6f-5254-42e6-9b69-6361645f7063,rev?*%
%TF.SameCoordinates,Original*%
%TF.FileFunction,Soldermask,Top*%
%TF.FilePolarity,Negative*%
%FSLAX46Y46*%
G04 Gerber Fmt 4.6, Leading zero omitted, Abs format (unit mm)*
G04 Created by KiCad (PCBNEW (5.1.6)-1) date 2020-07-26 08:56:46*
%MOMM*%
%LPD*%
G01*
G04 APERTURE LIST*
%ADD10R,2.098980X2.098980*%
%ADD11R,1.100000X2.100000*%
%ADD12O,1.800000X1.800000*%
%ADD13R,1.800000X1.800000*%
%ADD14R,4.660000X0.950000*%
%ADD15R,4.660000X1.100000*%
%ADD16R,0.700000X0.600000*%
%ADD17R,0.600000X0.700000*%
%ADD18R,0.850000X0.900000*%
%ADD19R,0.900000X0.850000*%
%ADD20R,0.900000X0.900000*%
%ADD21R,0.500000X0.700000*%
%ADD22R,0.700000X0.500000*%
%ADD23R,0.900000X1.000000*%
%ADD24R,1.400000X0.800000*%
%ADD25R,1.350000X1.350000*%
%ADD26R,0.400000X0.830000*%
%ADD27R,0.830000X0.400000*%
%ADD28R,1.600000X2.100000*%
%ADD29R,3.900000X2.100000*%
%ADD30R,1.500000X1.300000*%
%ADD31C,2.300000*%
G04 APERTURE END LIST*
D10*
%TO.C,JP1*%
X111760000Y-91440000D03*
X111760000Y-87630000D03*
D11*
X111760000Y-88900000D03*
X111760000Y-90170000D03*
%TD*%
D12*
%TO.C,J2*%
X99695000Y-86360000D03*
X102235000Y-86360000D03*
X99695000Y-88900000D03*
X102235000Y-88900000D03*
X99695000Y-91440000D03*
X102235000Y-91440000D03*
X99695000Y-93980000D03*
X102235000Y-93980000D03*
X99695000Y-96520000D03*
D13*
X102235000Y-96520000D03*
%TD*%
D14*
%TO.C,J5*%
X147320000Y-91440000D03*
D15*
X147320000Y-94210000D03*
X147320000Y-88670000D03*
%TD*%
D16*
%TO.C,C1*%
X125010000Y-91440000D03*
X123910000Y-91440000D03*
%TD*%
D17*
%TO.C,C2*%
X127000000Y-93811000D03*
X127000000Y-94911000D03*
%TD*%
D18*
%TO.C,C3*%
X125095000Y-85610000D03*
X125095000Y-87110000D03*
%TD*%
D17*
%TO.C,C4*%
X129540000Y-94911000D03*
X129540000Y-93811000D03*
%TD*%
D16*
%TO.C,C5*%
X125010000Y-90170000D03*
X123910000Y-90170000D03*
%TD*%
D17*
%TO.C,C6*%
X128270000Y-85175000D03*
X128270000Y-86275000D03*
%TD*%
D18*
%TO.C,C7*%
X120650000Y-95135000D03*
X120650000Y-96635000D03*
%TD*%
D17*
%TO.C,C8*%
X128270000Y-93176000D03*
X128270000Y-94276000D03*
%TD*%
D18*
%TO.C,C9*%
X119380000Y-95135000D03*
X119380000Y-96635000D03*
%TD*%
D17*
%TO.C,C10*%
X131445000Y-92160000D03*
X131445000Y-93260000D03*
%TD*%
D16*
%TO.C,C11*%
X132630000Y-87630000D03*
X131530000Y-87630000D03*
%TD*%
D17*
%TO.C,C12*%
X133985000Y-90720000D03*
X133985000Y-89620000D03*
%TD*%
D16*
%TO.C,C13*%
X131530000Y-86360000D03*
X132630000Y-86360000D03*
%TD*%
D17*
%TO.C,C14*%
X133985000Y-88180000D03*
X133985000Y-87080000D03*
%TD*%
D16*
%TO.C,C15*%
X135340000Y-93345000D03*
X136440000Y-93345000D03*
%TD*%
D18*
%TO.C,C16*%
X116840000Y-96635000D03*
X116840000Y-95135000D03*
%TD*%
D19*
%TO.C,C17*%
X131330000Y-85090000D03*
X132830000Y-85090000D03*
%TD*%
D16*
%TO.C,C18*%
X136440000Y-90805000D03*
X135340000Y-90805000D03*
%TD*%
D18*
%TO.C,C19*%
X115570000Y-96635000D03*
X115570000Y-95135000D03*
%TD*%
D17*
%TO.C,C20*%
X139065000Y-92625000D03*
X139065000Y-91525000D03*
%TD*%
D16*
%TO.C,C21*%
X142325000Y-90170000D03*
X143425000Y-90170000D03*
%TD*%
D17*
%TO.C,C22*%
X121920000Y-96435000D03*
X121920000Y-95335000D03*
%TD*%
%TO.C,C23*%
X114300000Y-96435000D03*
X114300000Y-95335000D03*
%TD*%
D20*
%TO.C,D2*%
X107950000Y-91605000D03*
X107950000Y-90005000D03*
%TD*%
D21*
%TO.C,L1*%
X132530000Y-89535000D03*
X131630000Y-89535000D03*
%TD*%
%TO.C,L2*%
X131630000Y-90805000D03*
X132530000Y-90805000D03*
%TD*%
D22*
%TO.C,L3*%
X133985000Y-92260000D03*
X133985000Y-93160000D03*
%TD*%
D21*
%TO.C,L4*%
X136340000Y-89535000D03*
X135440000Y-89535000D03*
%TD*%
%TO.C,L5*%
X137980000Y-90170000D03*
X138880000Y-90170000D03*
%TD*%
%TO.C,L6*%
X140785000Y-90170000D03*
X139885000Y-90170000D03*
%TD*%
D23*
%TO.C,Q1*%
X108585000Y-94885000D03*
X109535000Y-96885000D03*
X107635000Y-96885000D03*
%TD*%
D22*
%TO.C,R2*%
X129540000Y-85275000D03*
X129540000Y-86175000D03*
%TD*%
D24*
%TO.C,R3*%
X107950000Y-87945000D03*
X107950000Y-86045000D03*
%TD*%
D25*
%TO.C,U1*%
X127645000Y-88910000D03*
X127645000Y-90160000D03*
X128895000Y-88910000D03*
X128895000Y-90160000D03*
D26*
X127270000Y-87570000D03*
X127770000Y-87570000D03*
X128270000Y-87570000D03*
X128770000Y-87570000D03*
X129270000Y-87570000D03*
D27*
X130235000Y-88535000D03*
X130235000Y-89035000D03*
X130235000Y-89535000D03*
X130235000Y-90035000D03*
X130235000Y-90535000D03*
D26*
X129270000Y-91500000D03*
X128770000Y-91500000D03*
X128270000Y-91500000D03*
X127770000Y-91500000D03*
X127270000Y-91500000D03*
D27*
X126305000Y-90535000D03*
X126305000Y-90035000D03*
X126305000Y-89535000D03*
X126305000Y-89035000D03*
X126305000Y-88535000D03*
%TD*%
D28*
%TO.C,U2*%
X115810000Y-92685000D03*
X120410000Y-92685000D03*
X118110000Y-92685000D03*
D29*
X118110000Y-86385000D03*
%TD*%
D30*
%TO.C,Y1*%
X127170000Y-96520000D03*
X129370000Y-96520000D03*
X129370000Y-98220000D03*
X127170000Y-98220000D03*
%TD*%
D31*
%TO.C,H1*%
X97790000Y-101600000D03*
%TD*%
%TO.C,H2*%
X147320000Y-101600000D03*
%TD*%
%TO.C,H3*%
X97790000Y-81280000D03*
%TD*%
%TO.C,H4*%
X147320000Y-81280000D03*
%TD*%
M02*
