M48
; DRILL file {KiCad (5.1.6)-1} date 07/26/20 08:56:47
; FORMAT={-:-/ absolute / inch / decimal}
; #@! TF.CreationDate,2020-07-26T08:56:47-05:00
; #@! TF.GenerationSoftware,Kicad,Pcbnew,(5.1.6)-1
; #@! TF.FileFunction,Plated,1,4,PTH
FMAT,2
INCH
T1C0.0100
T2C0.0160
T3C0.0394
%
G90
G05
T1
X4.335Y-3.6
X4.4Y-3.66
X4.465Y-3.595
X4.5Y-3.715
X4.505Y-3.66
X4.55Y-3.715
X4.56Y-3.595
X4.59Y-3.71
X4.6026Y-3.65
X4.61Y-3.59
X4.65Y-3.59
X4.685Y-3.59
X4.84Y-3.55
X4.845Y-3.6
X4.885Y-3.365
X4.8898Y-3.4286
X4.9099Y-3.5272
X4.9405Y-3.6263
X4.9601Y-3.4475
X4.97Y-3.635
X4.9773Y-3.7124
X4.98Y-3.59
X4.985Y-3.46
X5.0029Y-3.3875
X5.0049Y-3.4799
X5.0049Y-3.525
X5.005Y-3.57
X5.005Y-3.7663
X5.005Y-3.91
X5.0223Y-3.4076
X5.025Y-3.5
X5.025Y-3.55
X5.05Y-3.325
X5.05Y-3.905
X5.055Y-3.74
X5.065Y-3.64
X5.075Y-3.5
X5.075Y-3.55
X5.095Y-3.91
X5.0951Y-3.48
X5.0951Y-3.525
X5.0951Y-3.5701
X5.1Y-3.325
X5.11Y-3.67
X5.1131Y-3.6
X5.115Y-3.45
X5.135Y-3.87
X5.14Y-3.35
X5.14Y-3.395
X5.145Y-3.43
X5.165Y-3.32
X5.185Y-3.705
X5.205Y-3.63
X5.21Y-3.67
X5.225Y-3.315
X5.25Y-3.3
X5.25Y-3.7
X5.25Y-3.75
X5.25Y-3.8
X5.25Y-3.85
X5.25Y-3.9
X5.255Y-3.38
X5.265Y-3.35
X5.275Y-3.395
X5.3Y-3.3
X5.3Y-3.9
X5.35Y-3.3
X5.35Y-3.4
X5.35Y-3.8
X5.35Y-3.9
X5.37Y-3.705
X5.375Y-3.65
X5.4Y-3.3
X5.4Y-3.9
X5.425Y-3.65
X5.45Y-3.3
X5.45Y-3.4
X5.45Y-3.8
X5.45Y-3.9
X5.475Y-3.675
X5.5Y-3.3
X5.5Y-3.65
X5.5Y-3.9
X5.55Y-3.3
X5.55Y-3.4
X5.55Y-3.7
X5.55Y-3.8
X5.55Y-3.9
X5.6Y-3.3
X5.6Y-3.9
X5.65Y-3.3
X5.65Y-3.4
X5.65Y-3.7
X5.65Y-3.8
X5.65Y-3.9
X5.675Y-3.475
X5.675Y-3.725
X5.7Y-3.3
X5.7Y-3.9
X5.75Y-3.3
X5.75Y-3.4
X5.75Y-3.8
X5.75Y-3.9
X5.8Y-3.3
X5.8Y-3.45
X5.8Y-3.525
X5.8Y-3.675
X5.8Y-3.75
X5.8Y-3.9
X5.85Y-3.3
X5.85Y-3.35
X5.85Y-3.4
X5.85Y-3.45
X5.85Y-3.75
X5.85Y-3.8
X5.85Y-3.85
X5.85Y-3.9
T2
X4.25Y-3.655
X4.5Y-3.835
X4.55Y-3.845
X4.6Y-3.855
X4.7Y-3.86
X4.75Y-3.85
X4.8Y-3.84
T3
X3.925Y-3.4
X3.925Y-3.5
X3.925Y-3.6
X3.925Y-3.7
X3.925Y-3.8
X4.025Y-3.4
X4.025Y-3.5
X4.025Y-3.6
X4.025Y-3.7
X4.025Y-3.8
T0
M30
