%TF.GenerationSoftware,KiCad,Pcbnew,(5.1.6)-1*%
%TF.CreationDate,2020-07-26T08:56:45-05:00*%
%TF.ProjectId,nanoRT,6e616e6f-5254-42e6-9b69-6361645f7063,rev?*%
%TF.SameCoordinates,Original*%
%TF.FileFunction,Copper,L1,Top*%
%TF.FilePolarity,Positive*%
%FSLAX46Y46*%
G04 Gerber Fmt 4.6, Leading zero omitted, Abs format (unit mm)*
G04 Created by KiCad (PCBNEW (5.1.6)-1) date 2020-07-26 08:56:45*
%MOMM*%
%LPD*%
G01*
G04 APERTURE LIST*
%TA.AperFunction,SMDPad,CuDef*%
%ADD10R,1.998980X1.998980*%
%TD*%
%TA.AperFunction,SMDPad,CuDef*%
%ADD11R,1.000000X2.000000*%
%TD*%
%TA.AperFunction,ComponentPad*%
%ADD12O,1.700000X1.700000*%
%TD*%
%TA.AperFunction,ComponentPad*%
%ADD13R,1.700000X1.700000*%
%TD*%
%TA.AperFunction,SMDPad,CuDef*%
%ADD14R,4.560000X0.850000*%
%TD*%
%TA.AperFunction,SMDPad,CuDef*%
%ADD15R,4.560000X1.000000*%
%TD*%
%TA.AperFunction,SMDPad,CuDef*%
%ADD16R,0.600000X0.500000*%
%TD*%
%TA.AperFunction,SMDPad,CuDef*%
%ADD17R,0.500000X0.600000*%
%TD*%
%TA.AperFunction,SMDPad,CuDef*%
%ADD18R,0.750000X0.800000*%
%TD*%
%TA.AperFunction,SMDPad,CuDef*%
%ADD19R,0.800000X0.750000*%
%TD*%
%TA.AperFunction,SMDPad,CuDef*%
%ADD20R,0.800000X0.800000*%
%TD*%
%TA.AperFunction,SMDPad,CuDef*%
%ADD21R,0.400000X0.600000*%
%TD*%
%TA.AperFunction,SMDPad,CuDef*%
%ADD22R,0.600000X0.400000*%
%TD*%
%TA.AperFunction,SMDPad,CuDef*%
%ADD23R,0.800000X0.900000*%
%TD*%
%TA.AperFunction,SMDPad,CuDef*%
%ADD24R,1.300000X0.700000*%
%TD*%
%TA.AperFunction,SMDPad,CuDef*%
%ADD25R,1.250000X1.250000*%
%TD*%
%TA.AperFunction,SMDPad,CuDef*%
%ADD26R,0.300000X0.730000*%
%TD*%
%TA.AperFunction,SMDPad,CuDef*%
%ADD27R,0.730000X0.300000*%
%TD*%
%TA.AperFunction,SMDPad,CuDef*%
%ADD28R,1.500000X2.000000*%
%TD*%
%TA.AperFunction,SMDPad,CuDef*%
%ADD29R,3.800000X2.000000*%
%TD*%
%TA.AperFunction,SMDPad,CuDef*%
%ADD30R,1.400000X1.200000*%
%TD*%
%TA.AperFunction,ViaPad*%
%ADD31C,0.812800*%
%TD*%
%TA.AperFunction,ViaPad*%
%ADD32C,0.508000*%
%TD*%
%TA.AperFunction,Conductor*%
%ADD33C,0.254000*%
%TD*%
%TA.AperFunction,Conductor*%
%ADD34C,0.635000*%
%TD*%
%TA.AperFunction,Conductor*%
%ADD35C,0.177800*%
%TD*%
%TA.AperFunction,Conductor*%
%ADD36C,0.355600*%
%TD*%
G04 APERTURE END LIST*
D10*
%TO.P,JP1,2*%
%TO.N,+3V3*%
X111760000Y-91440000D03*
%TO.P,JP1,1*%
%TO.N,Net-(JP1-Pad1)*%
X111760000Y-87630000D03*
D11*
X111760000Y-88900000D03*
%TO.P,JP1,2*%
%TO.N,+3V3*%
X111760000Y-90170000D03*
%TD*%
D12*
%TO.P,J2,10*%
%TO.N,/SPI2_SCK*%
X99695000Y-86360000D03*
%TO.P,J2,9*%
%TO.N,/GDO1*%
X102235000Y-86360000D03*
%TO.P,J2,8*%
%TO.N,/SPI2_~CS*%
X99695000Y-88900000D03*
%TO.P,J2,7*%
%TO.N,/GDO0*%
X102235000Y-88900000D03*
%TO.P,J2,6*%
%TO.N,/SPI2_MISO*%
X99695000Y-91440000D03*
%TO.P,J2,5*%
%TO.N,GND*%
X102235000Y-91440000D03*
%TO.P,J2,4*%
%TO.N,/SPI2_MOSI*%
X99695000Y-93980000D03*
%TO.P,J2,3*%
%TO.N,GND*%
X102235000Y-93980000D03*
%TO.P,J2,2*%
%TO.N,/5V_EXT*%
X99695000Y-96520000D03*
D13*
%TO.P,J2,1*%
%TO.N,+3V3*%
X102235000Y-96520000D03*
%TD*%
D14*
%TO.P,J5,1*%
%TO.N,Net-(C21-Pad1)*%
X147320000Y-91440000D03*
D15*
%TO.P,J5,2*%
%TO.N,GND*%
X147320000Y-94210000D03*
X147320000Y-88670000D03*
%TD*%
D16*
%TO.P,C1,1*%
%TO.N,/DCOUPL*%
X125010000Y-91440000D03*
%TO.P,C1,2*%
%TO.N,GND*%
X123910000Y-91440000D03*
%TD*%
D17*
%TO.P,C2,2*%
%TO.N,GND*%
X127000000Y-93811000D03*
%TO.P,C2,1*%
%TO.N,/XTAL_Q1*%
X127000000Y-94911000D03*
%TD*%
D18*
%TO.P,C3,2*%
%TO.N,GND*%
X125095000Y-85610000D03*
%TO.P,C3,1*%
%TO.N,+3V3*%
X125095000Y-87110000D03*
%TD*%
D17*
%TO.P,C4,1*%
%TO.N,/XTAL_Q2*%
X129540000Y-94911000D03*
%TO.P,C4,2*%
%TO.N,GND*%
X129540000Y-93811000D03*
%TD*%
D16*
%TO.P,C5,1*%
%TO.N,+3V3*%
X125010000Y-90170000D03*
%TO.P,C5,2*%
%TO.N,GND*%
X123910000Y-90170000D03*
%TD*%
D17*
%TO.P,C6,2*%
%TO.N,GND*%
X128270000Y-85175000D03*
%TO.P,C6,1*%
%TO.N,+3V3*%
X128270000Y-86275000D03*
%TD*%
D18*
%TO.P,C7,1*%
%TO.N,/5V_PROT*%
X120650000Y-95135000D03*
%TO.P,C7,2*%
%TO.N,GND*%
X120650000Y-96635000D03*
%TD*%
D17*
%TO.P,C8,1*%
%TO.N,+3V3*%
X128270000Y-93176000D03*
%TO.P,C8,2*%
%TO.N,GND*%
X128270000Y-94276000D03*
%TD*%
D18*
%TO.P,C9,1*%
%TO.N,/5V_PROT*%
X119380000Y-95135000D03*
%TO.P,C9,2*%
%TO.N,GND*%
X119380000Y-96635000D03*
%TD*%
D17*
%TO.P,C10,1*%
%TO.N,+3V3*%
X131445000Y-92160000D03*
%TO.P,C10,2*%
%TO.N,GND*%
X131445000Y-93260000D03*
%TD*%
D16*
%TO.P,C11,2*%
%TO.N,GND*%
X132630000Y-87630000D03*
%TO.P,C11,1*%
%TO.N,+3V3*%
X131530000Y-87630000D03*
%TD*%
D17*
%TO.P,C12,2*%
%TO.N,Net-(C12-Pad2)*%
X133985000Y-90720000D03*
%TO.P,C12,1*%
%TO.N,Net-(C12-Pad1)*%
X133985000Y-89620000D03*
%TD*%
D16*
%TO.P,C13,1*%
%TO.N,+3V3*%
X131530000Y-86360000D03*
%TO.P,C13,2*%
%TO.N,GND*%
X132630000Y-86360000D03*
%TD*%
D17*
%TO.P,C14,2*%
%TO.N,Net-(C12-Pad1)*%
X133985000Y-88180000D03*
%TO.P,C14,1*%
%TO.N,GND*%
X133985000Y-87080000D03*
%TD*%
D16*
%TO.P,C15,1*%
%TO.N,Net-(C15-Pad1)*%
X135340000Y-93345000D03*
%TO.P,C15,2*%
%TO.N,GND*%
X136440000Y-93345000D03*
%TD*%
D18*
%TO.P,C16,2*%
%TO.N,GND*%
X116840000Y-96635000D03*
%TO.P,C16,1*%
%TO.N,+3V3*%
X116840000Y-95135000D03*
%TD*%
D19*
%TO.P,C17,1*%
%TO.N,+3V3*%
X131330000Y-85090000D03*
%TO.P,C17,2*%
%TO.N,GND*%
X132830000Y-85090000D03*
%TD*%
D16*
%TO.P,C18,1*%
%TO.N,Net-(C18-Pad1)*%
X136440000Y-90805000D03*
%TO.P,C18,2*%
%TO.N,Net-(C12-Pad2)*%
X135340000Y-90805000D03*
%TD*%
D18*
%TO.P,C19,2*%
%TO.N,GND*%
X115570000Y-96635000D03*
%TO.P,C19,1*%
%TO.N,+3V3*%
X115570000Y-95135000D03*
%TD*%
D17*
%TO.P,C20,2*%
%TO.N,GND*%
X139065000Y-92625000D03*
%TO.P,C20,1*%
%TO.N,Net-(C20-Pad1)*%
X139065000Y-91525000D03*
%TD*%
D16*
%TO.P,C21,2*%
%TO.N,Net-(C21-Pad2)*%
X142325000Y-90170000D03*
%TO.P,C21,1*%
%TO.N,Net-(C21-Pad1)*%
X143425000Y-90170000D03*
%TD*%
D17*
%TO.P,C22,2*%
%TO.N,GND*%
X121920000Y-96435000D03*
%TO.P,C22,1*%
%TO.N,/5V_PROT*%
X121920000Y-95335000D03*
%TD*%
%TO.P,C23,2*%
%TO.N,GND*%
X114300000Y-96435000D03*
%TO.P,C23,1*%
%TO.N,+3V3*%
X114300000Y-95335000D03*
%TD*%
D20*
%TO.P,D2,1*%
%TO.N,GND*%
X107950000Y-91605000D03*
%TO.P,D2,2*%
%TO.N,Net-(D2-Pad2)*%
X107950000Y-90005000D03*
%TD*%
D21*
%TO.P,L1,2*%
%TO.N,Net-(C12-Pad1)*%
X132530000Y-89535000D03*
%TO.P,L1,1*%
%TO.N,/RF_N*%
X131630000Y-89535000D03*
%TD*%
%TO.P,L2,1*%
%TO.N,/RF_P*%
X131630000Y-90805000D03*
%TO.P,L2,2*%
%TO.N,Net-(C12-Pad2)*%
X132530000Y-90805000D03*
%TD*%
D22*
%TO.P,L3,1*%
%TO.N,Net-(C12-Pad2)*%
X133985000Y-92260000D03*
%TO.P,L3,2*%
%TO.N,Net-(C15-Pad1)*%
X133985000Y-93160000D03*
%TD*%
D21*
%TO.P,L4,2*%
%TO.N,Net-(C18-Pad1)*%
X136340000Y-89535000D03*
%TO.P,L4,1*%
%TO.N,Net-(C12-Pad1)*%
X135440000Y-89535000D03*
%TD*%
%TO.P,L5,1*%
%TO.N,Net-(C18-Pad1)*%
X137980000Y-90170000D03*
%TO.P,L5,2*%
%TO.N,Net-(C20-Pad1)*%
X138880000Y-90170000D03*
%TD*%
%TO.P,L6,2*%
%TO.N,Net-(C21-Pad2)*%
X140785000Y-90170000D03*
%TO.P,L6,1*%
%TO.N,Net-(C20-Pad1)*%
X139885000Y-90170000D03*
%TD*%
D23*
%TO.P,Q1,3*%
%TO.N,/5V_EXT*%
X108585000Y-94885000D03*
%TO.P,Q1,2*%
%TO.N,/5V_PROT*%
X109535000Y-96885000D03*
%TO.P,Q1,1*%
%TO.N,GND*%
X107635000Y-96885000D03*
%TD*%
D22*
%TO.P,R2,2*%
%TO.N,GND*%
X129540000Y-85275000D03*
%TO.P,R2,1*%
%TO.N,/RBIAS*%
X129540000Y-86175000D03*
%TD*%
D24*
%TO.P,R3,2*%
%TO.N,Net-(D2-Pad2)*%
X107950000Y-87945000D03*
%TO.P,R3,1*%
%TO.N,Net-(JP1-Pad1)*%
X107950000Y-86045000D03*
%TD*%
D25*
%TO.P,U1,21*%
%TO.N,GND*%
X127645000Y-88910000D03*
X127645000Y-90160000D03*
X128895000Y-88910000D03*
X128895000Y-90160000D03*
D26*
%TO.P,U1,20*%
%TO.N,/SPI2_MOSI*%
X127270000Y-87570000D03*
%TO.P,U1,19*%
%TO.N,GND*%
X127770000Y-87570000D03*
%TO.P,U1,18*%
%TO.N,+3V3*%
X128270000Y-87570000D03*
%TO.P,U1,17*%
%TO.N,/RBIAS*%
X128770000Y-87570000D03*
%TO.P,U1,16*%
%TO.N,GND*%
X129270000Y-87570000D03*
D27*
%TO.P,U1,15*%
%TO.N,+3V3*%
X130235000Y-88535000D03*
%TO.P,U1,14*%
X130235000Y-89035000D03*
%TO.P,U1,13*%
%TO.N,/RF_N*%
X130235000Y-89535000D03*
%TO.P,U1,12*%
%TO.N,/RF_P*%
X130235000Y-90035000D03*
%TO.P,U1,11*%
%TO.N,+3V3*%
X130235000Y-90535000D03*
D26*
%TO.P,U1,10*%
%TO.N,/XTAL_Q2*%
X129270000Y-91500000D03*
%TO.P,U1,9*%
%TO.N,+3V3*%
X128770000Y-91500000D03*
%TO.P,U1,8*%
%TO.N,/XTAL_Q1*%
X128270000Y-91500000D03*
%TO.P,U1,7*%
%TO.N,/SPI2_~CS*%
X127770000Y-91500000D03*
%TO.P,U1,6*%
%TO.N,/GDO0*%
X127270000Y-91500000D03*
D27*
%TO.P,U1,5*%
%TO.N,/DCOUPL*%
X126305000Y-90535000D03*
%TO.P,U1,4*%
%TO.N,+3V3*%
X126305000Y-90035000D03*
%TO.P,U1,3*%
%TO.N,/GDO1*%
X126305000Y-89535000D03*
%TO.P,U1,2*%
%TO.N,/SPI2_MISO*%
X126305000Y-89035000D03*
%TO.P,U1,1*%
%TO.N,/SPI2_SCK*%
X126305000Y-88535000D03*
%TD*%
D28*
%TO.P,U2,1*%
%TO.N,GND*%
X115810000Y-92685000D03*
%TO.P,U2,3*%
%TO.N,/5V_PROT*%
X120410000Y-92685000D03*
%TO.P,U2,2*%
%TO.N,+3V3*%
X118110000Y-92685000D03*
D29*
%TO.P,U2,4*%
%TO.N,N/C*%
X118110000Y-86385000D03*
%TD*%
D30*
%TO.P,Y1,4*%
%TO.N,GND*%
X127170000Y-96520000D03*
%TO.P,Y1,3*%
%TO.N,/XTAL_Q2*%
X129370000Y-96520000D03*
%TO.P,Y1,2*%
%TO.N,GND*%
X129370000Y-98220000D03*
%TO.P,Y1,1*%
%TO.N,/XTAL_Q1*%
X127170000Y-98220000D03*
%TD*%
D31*
%TO.N,GND*%
X121920000Y-97536000D03*
X119380000Y-98044000D03*
X120650000Y-97790000D03*
X116840000Y-97917000D03*
X115570000Y-97663000D03*
X114300000Y-97409000D03*
X107950000Y-92837000D03*
D32*
X132334000Y-93218000D03*
X131699000Y-94107000D03*
X129921000Y-87630000D03*
X129540000Y-84455000D03*
X128270000Y-84455000D03*
X124079000Y-85471000D03*
X123063000Y-91440000D03*
X122936000Y-90170000D03*
X136398000Y-94107000D03*
X139065000Y-93345000D03*
X133985000Y-86233000D03*
X132715000Y-84201000D03*
X133731000Y-85090000D03*
X133477000Y-85852000D03*
X127635000Y-90170000D03*
X128905000Y-90170000D03*
X128905000Y-88900000D03*
X127635000Y-88900000D03*
X127565998Y-86551983D03*
X127124002Y-88389002D03*
X129415998Y-88392000D03*
X129415998Y-90680998D03*
X127127000Y-90678000D03*
X127124002Y-89535000D03*
X129415998Y-89535000D03*
X133350000Y-93980000D03*
X133350000Y-95250000D03*
X133350000Y-96520000D03*
X133350000Y-97790000D03*
X133350000Y-99060000D03*
X134620000Y-99060000D03*
X135890000Y-99060000D03*
X137160000Y-99060000D03*
X138430000Y-99060000D03*
X139700000Y-99060000D03*
X140970000Y-99060000D03*
X142240000Y-99060000D03*
X143510000Y-99060000D03*
X144780000Y-99060000D03*
X146050000Y-99060000D03*
X147320000Y-99060000D03*
X148590000Y-99060000D03*
X148590000Y-97790000D03*
X148590000Y-96520000D03*
X148590000Y-95250000D03*
X148590000Y-87630000D03*
X148590000Y-86360000D03*
X148590000Y-85090000D03*
X148590000Y-83820000D03*
X147320000Y-83820000D03*
X146050000Y-83820000D03*
X144780000Y-83820000D03*
X143510000Y-83820000D03*
X142240000Y-83820000D03*
X140970000Y-83820000D03*
X139700000Y-83820000D03*
X138430000Y-83820000D03*
X137160000Y-83820000D03*
X135890000Y-83820000D03*
X134620000Y-83820000D03*
X133350000Y-83820000D03*
X144145000Y-94615000D03*
X144145000Y-88265000D03*
X147320000Y-89535000D03*
X147320000Y-93345000D03*
X147320000Y-87630000D03*
X147320000Y-95250000D03*
X128397000Y-94996000D03*
X129794000Y-93218000D03*
X126423957Y-94295067D03*
X129413000Y-99314000D03*
X130429000Y-98298000D03*
X128270000Y-99187000D03*
X127127000Y-95665002D03*
X127127000Y-99314000D03*
X139700000Y-92710000D03*
X136525000Y-92710000D03*
X137795000Y-92710000D03*
X135890000Y-96520000D03*
X138430000Y-96520000D03*
X140970000Y-96520000D03*
X143510000Y-96520000D03*
X146050000Y-96520000D03*
X140970000Y-93980000D03*
X143510000Y-93980000D03*
X146050000Y-86360000D03*
X143510000Y-86360000D03*
X140970000Y-86360000D03*
X138430000Y-86360000D03*
X135890000Y-86360000D03*
X114427000Y-92964000D03*
X115824000Y-91313000D03*
X116905998Y-92710000D03*
X126492000Y-91186000D03*
X126619000Y-87884000D03*
X129874002Y-91440000D03*
%TO.N,+3V3*%
X114300000Y-94361000D03*
X115570000Y-94361000D03*
X116586000Y-94234000D03*
X110109000Y-91440000D03*
X111760000Y-92964000D03*
X113411000Y-91313000D03*
X118110000Y-91186000D03*
X117094000Y-91186000D03*
X118999000Y-91186000D03*
X132207000Y-92202000D03*
X131191000Y-84328000D03*
X130556000Y-85090000D03*
X130556000Y-86233000D03*
X130683000Y-87122000D03*
X127074719Y-86042154D03*
X128651000Y-92456000D03*
X124712253Y-89591653D03*
X124201182Y-87087090D03*
%TO.N,/SPI2_MOSI*%
X125985735Y-87567368D03*
%TO.N,/SPI2_~CS*%
X126238000Y-92329000D03*
%TO.N,/GDO0*%
X125489754Y-92106901D03*
%TD*%
D33*
%TO.N,/DCOUPL*%
X125915000Y-90535000D02*
X125010000Y-91440000D01*
X126305000Y-90535000D02*
X125915000Y-90535000D01*
D34*
%TO.N,GND*%
X133180000Y-87080000D02*
X132630000Y-87630000D01*
X133985000Y-87080000D02*
X133180000Y-87080000D01*
X132630000Y-86360000D02*
X132630000Y-87630000D01*
X132830000Y-85090000D02*
X132830000Y-86160000D01*
X129440000Y-85175000D02*
X129540000Y-85275000D01*
X128270000Y-85175000D02*
X129440000Y-85175000D01*
X125530000Y-85175000D02*
X128270000Y-85175000D01*
X125095000Y-85610000D02*
X125530000Y-85175000D01*
X123910000Y-90170000D02*
X123910000Y-91440000D01*
X115370000Y-96435000D02*
X115570000Y-96635000D01*
X114300000Y-96435000D02*
X115370000Y-96435000D01*
X115570000Y-96635000D02*
X116840000Y-96635000D01*
X116840000Y-96635000D02*
X119380000Y-96635000D01*
X119380000Y-96635000D02*
X120650000Y-96635000D01*
X121720000Y-96635000D02*
X121920000Y-96435000D01*
X120650000Y-96635000D02*
X121720000Y-96635000D01*
X107635000Y-96885000D02*
X107635000Y-96205000D01*
X107635000Y-96205000D02*
X105410000Y-93980000D01*
D35*
X121920000Y-96435000D02*
X121920000Y-97536000D01*
X119380000Y-96635000D02*
X119380000Y-98044000D01*
X120650000Y-96635000D02*
X120650000Y-97790000D01*
X116840000Y-96635000D02*
X116840000Y-97917000D01*
X115570000Y-96635000D02*
X115570000Y-97663000D01*
X114300000Y-96435000D02*
X114300000Y-97409000D01*
D36*
X137160000Y-92625000D02*
X136440000Y-93345000D01*
X131445000Y-93260000D02*
X132292000Y-93260000D01*
X132292000Y-93260000D02*
X132334000Y-93218000D01*
X131445000Y-93260000D02*
X131445000Y-93853000D01*
X131445000Y-93853000D02*
X131699000Y-94107000D01*
D33*
X129270000Y-87570000D02*
X129861000Y-87570000D01*
X129861000Y-87570000D02*
X129921000Y-87630000D01*
X129540000Y-85275000D02*
X129540000Y-84455000D01*
X128270000Y-85175000D02*
X128270000Y-84455000D01*
X125095000Y-85610000D02*
X124218000Y-85610000D01*
X124218000Y-85610000D02*
X124079000Y-85471000D01*
X123910000Y-91440000D02*
X123063000Y-91440000D01*
X123910000Y-90170000D02*
X122936000Y-90170000D01*
X136440000Y-93345000D02*
X136440000Y-94065000D01*
X136440000Y-94065000D02*
X136398000Y-94107000D01*
X139065000Y-92625000D02*
X139065000Y-93345000D01*
X132830000Y-85090000D02*
X132830000Y-84316000D01*
X132830000Y-84316000D02*
X132715000Y-84201000D01*
X132830000Y-85090000D02*
X133731000Y-85090000D01*
X132630000Y-86360000D02*
X132830000Y-86160000D01*
X127645000Y-90160000D02*
X127635000Y-90170000D01*
X128895000Y-90160000D02*
X128905000Y-90170000D01*
X128895000Y-88910000D02*
X128905000Y-88900000D01*
X127645000Y-88910000D02*
X127635000Y-88900000D01*
D35*
X127770000Y-87570000D02*
X127770000Y-86755985D01*
X127770000Y-86755985D02*
X127565998Y-86551983D01*
X128905000Y-88900000D02*
X128907998Y-88900000D01*
X128907998Y-88900000D02*
X129415998Y-88392000D01*
X127645000Y-90160000D02*
X127127000Y-90678000D01*
X128905000Y-88900000D02*
X128905000Y-89024002D01*
X128905000Y-89024002D02*
X129415998Y-89535000D01*
X132334000Y-93218000D02*
X133223000Y-93218000D01*
X133223000Y-93218000D02*
X133350000Y-93345000D01*
X133350000Y-93345000D02*
X133350000Y-93980000D01*
X133350000Y-95250000D02*
X133350000Y-96520000D01*
X133350000Y-97790000D02*
X133350000Y-99060000D01*
X134620000Y-99060000D02*
X135890000Y-99060000D01*
X137160000Y-99060000D02*
X138430000Y-99060000D01*
X139700000Y-99060000D02*
X140970000Y-99060000D01*
X142240000Y-99060000D02*
X143510000Y-99060000D01*
X144780000Y-99060000D02*
X146050000Y-99060000D01*
X147320000Y-99060000D02*
X148590000Y-99060000D01*
X148590000Y-97790000D02*
X148590000Y-96520000D01*
X148590000Y-86360000D02*
X148590000Y-85090000D01*
X148590000Y-83820000D02*
X147320000Y-83820000D01*
X146050000Y-83820000D02*
X144780000Y-83820000D01*
X143510000Y-83820000D02*
X142240000Y-83820000D01*
X140970000Y-83820000D02*
X139700000Y-83820000D01*
X138430000Y-83820000D02*
X137160000Y-83820000D01*
X135890000Y-83820000D02*
X134620000Y-83820000D01*
D36*
X133730999Y-85598001D02*
X133477000Y-85852000D01*
X133731000Y-85090000D02*
X133730999Y-85598001D01*
X133604000Y-85852000D02*
X133985000Y-86233000D01*
X133477000Y-85852000D02*
X133604000Y-85852000D01*
D34*
X147550000Y-94210000D02*
X148590000Y-95250000D01*
X147320000Y-94210000D02*
X147550000Y-94210000D01*
X147550000Y-88670000D02*
X148590000Y-87630000D01*
X147320000Y-88670000D02*
X147550000Y-88670000D01*
X147320000Y-88670000D02*
X144550000Y-88670000D01*
X144550000Y-88670000D02*
X144145000Y-88265000D01*
X147320000Y-94210000D02*
X147320000Y-93345000D01*
X147320000Y-94210000D02*
X147320000Y-95250000D01*
D33*
X128270000Y-94276000D02*
X128270000Y-94869000D01*
X128270000Y-94869000D02*
X128397000Y-94996000D01*
X129540000Y-93811000D02*
X129540000Y-93472000D01*
X129540000Y-93472000D02*
X129794000Y-93218000D01*
X127000000Y-93811000D02*
X126908024Y-93811000D01*
X126908024Y-93811000D02*
X126423957Y-94295067D01*
X127170000Y-96520000D02*
X127170000Y-96436000D01*
X129370000Y-98220000D02*
X129370000Y-99271000D01*
X129370000Y-99271000D02*
X129413000Y-99314000D01*
X129370000Y-98220000D02*
X130351000Y-98220000D01*
X130351000Y-98220000D02*
X130429000Y-98298000D01*
X129370000Y-98220000D02*
X129237000Y-98220000D01*
X129237000Y-98220000D02*
X128270000Y-99187000D01*
X127170000Y-96520000D02*
X127170000Y-95708002D01*
X127170000Y-95708002D02*
X127127000Y-95665002D01*
D34*
X144550000Y-94210000D02*
X144145000Y-94615000D01*
X147320000Y-94210000D02*
X144550000Y-94210000D01*
D36*
X139065000Y-92625000D02*
X139615000Y-92625000D01*
X139615000Y-92625000D02*
X139700000Y-92710000D01*
X136440000Y-93345000D02*
X136440000Y-92795000D01*
X136440000Y-92795000D02*
X136525000Y-92710000D01*
X137710000Y-92625000D02*
X137795000Y-92710000D01*
X137795000Y-92710000D02*
X137160000Y-92625000D01*
X139065000Y-92625000D02*
X137710000Y-92625000D01*
D34*
X147320000Y-87630000D02*
X147320000Y-88670000D01*
X147320000Y-89535000D02*
X147320000Y-88670000D01*
D36*
X133985000Y-86233000D02*
X133985000Y-87080000D01*
X133731000Y-84201000D02*
X133350000Y-83820000D01*
X133731000Y-85090000D02*
X133731000Y-84201000D01*
X133477000Y-85852000D02*
X133477000Y-86233000D01*
X133350000Y-86360000D02*
X132630000Y-86360000D01*
X133477000Y-86233000D02*
X133350000Y-86360000D01*
X107950000Y-91605000D02*
X107950000Y-92837000D01*
X115810000Y-92685000D02*
X114706000Y-92685000D01*
X114706000Y-92685000D02*
X114427000Y-92964000D01*
X115810000Y-92685000D02*
X115810000Y-91327000D01*
X115810000Y-91327000D02*
X115824000Y-91313000D01*
X115810000Y-92685000D02*
X116880998Y-92685000D01*
X116880998Y-92685000D02*
X116905998Y-92710000D01*
D34*
X105410000Y-93980000D02*
X102235000Y-93980000D01*
X102235000Y-91440000D02*
X102235000Y-93980000D01*
D35*
X126619000Y-91186000D02*
X126492000Y-91186000D01*
X127645000Y-90160000D02*
X126619000Y-91186000D01*
X129415998Y-90680998D02*
X129874002Y-91139002D01*
X129874002Y-91139002D02*
X129874002Y-91440000D01*
%TO.N,/XTAL_Q1*%
X127635000Y-94276000D02*
X127000000Y-94911000D01*
X127635000Y-92677800D02*
X127635000Y-94276000D01*
X128270000Y-91500000D02*
X128270000Y-92042800D01*
X128270000Y-92042800D02*
X127635000Y-92677800D01*
X128158901Y-98108899D02*
X128047800Y-98220000D01*
X128158901Y-95773901D02*
X128158901Y-98108899D01*
X128047800Y-98220000D02*
X127170000Y-98220000D01*
X127296000Y-94911000D02*
X128158901Y-95773901D01*
X127000000Y-94911000D02*
X127296000Y-94911000D01*
D34*
%TO.N,+3V3*%
X116840000Y-95135000D02*
X115570000Y-95135000D01*
X114500000Y-95135000D02*
X114300000Y-95335000D01*
X115570000Y-95135000D02*
X114500000Y-95135000D01*
X118110000Y-93865000D02*
X116840000Y-95135000D01*
X118110000Y-92685000D02*
X118110000Y-93865000D01*
D33*
X125145000Y-90035000D02*
X126305000Y-90035000D01*
X125010000Y-90170000D02*
X125145000Y-90035000D01*
X128270000Y-87570000D02*
X128270000Y-86275000D01*
X125095000Y-87110000D02*
X125095000Y-86995000D01*
X125095000Y-86995000D02*
X126111000Y-85979000D01*
D34*
X131330000Y-86160000D02*
X131530000Y-86360000D01*
X131330000Y-85090000D02*
X131330000Y-86160000D01*
X131530000Y-86360000D02*
X131530000Y-87630000D01*
D36*
X131140000Y-87630000D02*
X130235000Y-88535000D01*
X131530000Y-87630000D02*
X131140000Y-87630000D01*
X130235000Y-88535000D02*
X130235000Y-89007199D01*
D33*
X128778000Y-91508000D02*
X128770000Y-91500000D01*
X114300000Y-95335000D02*
X114300000Y-94361000D01*
X115570000Y-95135000D02*
X115570000Y-94361000D01*
X116840000Y-95135000D02*
X116840000Y-94488000D01*
X116840000Y-94488000D02*
X116586000Y-94234000D01*
X111760000Y-91440000D02*
X110109000Y-91440000D01*
X111760000Y-91440000D02*
X111760000Y-92964000D01*
X111760000Y-91440000D02*
X113284000Y-91440000D01*
X113284000Y-91440000D02*
X113411000Y-91313000D01*
X118110000Y-92685000D02*
X118110000Y-91186000D01*
X118110000Y-92685000D02*
X118110000Y-92202000D01*
X118110000Y-92202000D02*
X117094000Y-91186000D01*
X118110000Y-92685000D02*
X118110000Y-92075000D01*
X118110000Y-92075000D02*
X118999000Y-91186000D01*
X131445000Y-92160000D02*
X132165000Y-92160000D01*
X132165000Y-92160000D02*
X132207000Y-92202000D01*
X131330000Y-85090000D02*
X131330000Y-84467000D01*
X131330000Y-84467000D02*
X131191000Y-84328000D01*
X131330000Y-85090000D02*
X130556000Y-85090000D01*
X131530000Y-86360000D02*
X130683000Y-86360000D01*
X130683000Y-86360000D02*
X130556000Y-86233000D01*
X131530000Y-87630000D02*
X131191000Y-87630000D01*
X131191000Y-87630000D02*
X130683000Y-87122000D01*
X126111000Y-85979000D02*
X127254000Y-85979000D01*
X127254000Y-85979000D02*
X127137873Y-85979000D01*
X127254000Y-85979000D02*
X127262019Y-85970981D01*
X127262019Y-85970981D02*
X127965981Y-85970981D01*
X127145892Y-85970981D02*
X127074719Y-86042154D01*
X127137873Y-85979000D02*
X127074719Y-86042154D01*
X127965981Y-85970981D02*
X127145892Y-85970981D01*
X128270000Y-86275000D02*
X127965981Y-85970981D01*
D35*
X128770000Y-91500000D02*
X128770000Y-92337000D01*
X128770000Y-92337000D02*
X128651000Y-92456000D01*
X128651000Y-92456000D02*
X128312000Y-92795000D01*
X128312000Y-93134000D02*
X128270000Y-93176000D01*
X128312000Y-92795000D02*
X128312000Y-93134000D01*
D33*
X125010000Y-90170000D02*
X125010000Y-89889400D01*
X125010000Y-89889400D02*
X124712253Y-89591653D01*
X124224092Y-87110000D02*
X124201182Y-87087090D01*
X125095000Y-87110000D02*
X124224092Y-87110000D01*
D36*
X131445000Y-91772801D02*
X130235000Y-90562801D01*
X131445000Y-92160000D02*
X131445000Y-91772801D01*
D35*
%TO.N,/XTAL_Q2*%
X129270000Y-93010978D02*
X128905000Y-93375978D01*
X129270000Y-91500000D02*
X129270000Y-93010978D01*
X128905000Y-94276000D02*
X129540000Y-94911000D01*
X128905000Y-93375978D02*
X128905000Y-94276000D01*
X129540000Y-96350000D02*
X129370000Y-96520000D01*
X129540000Y-94911000D02*
X129540000Y-96350000D01*
D34*
%TO.N,/5V_PROT*%
X120850000Y-95335000D02*
X120650000Y-95135000D01*
X121920000Y-95335000D02*
X120850000Y-95335000D01*
X119380000Y-95135000D02*
X120650000Y-95135000D01*
X120410000Y-94895000D02*
X120650000Y-95135000D01*
X120410000Y-92685000D02*
X120410000Y-94895000D01*
X113538000Y-92456000D02*
X113538000Y-93917000D01*
X120410000Y-92685000D02*
X120410000Y-91050000D01*
X115579502Y-90414498D02*
X113538000Y-92456000D01*
X113538000Y-93917000D02*
X110570000Y-96885000D01*
X119774498Y-90414498D02*
X115579502Y-90414498D01*
X120410000Y-91050000D02*
X119774498Y-90414498D01*
X110570000Y-96885000D02*
X109535000Y-96885000D01*
%TO.N,Net-(C12-Pad2)*%
X134070000Y-90805000D02*
X133985000Y-90720000D01*
X135340000Y-90805000D02*
X134070000Y-90805000D01*
X133985000Y-92260000D02*
X133985000Y-90720000D01*
X133900000Y-90805000D02*
X133985000Y-90720000D01*
X132530000Y-90805000D02*
X133900000Y-90805000D01*
%TO.N,Net-(C12-Pad1)*%
X134070000Y-89535000D02*
X133985000Y-89620000D01*
X135440000Y-89535000D02*
X134070000Y-89535000D01*
X132615000Y-89620000D02*
X132530000Y-89535000D01*
X133985000Y-89620000D02*
X132615000Y-89620000D01*
X133985000Y-88180000D02*
X133985000Y-89620000D01*
D36*
%TO.N,Net-(C15-Pad1)*%
X135155000Y-93160000D02*
X135340000Y-93345000D01*
X133985000Y-93160000D02*
X135155000Y-93160000D01*
D34*
%TO.N,Net-(C18-Pad1)*%
X137345000Y-90805000D02*
X137980000Y-90170000D01*
X136440000Y-90805000D02*
X137345000Y-90805000D01*
X136340000Y-90705000D02*
X136440000Y-90805000D01*
X136340000Y-89535000D02*
X136340000Y-90705000D01*
%TO.N,Net-(C20-Pad1)*%
X138880000Y-90170000D02*
X139885000Y-90170000D01*
X139065000Y-90355000D02*
X138880000Y-90170000D01*
X139065000Y-91525000D02*
X139065000Y-90355000D01*
%TO.N,Net-(C21-Pad2)*%
X140785000Y-90170000D02*
X142325000Y-90170000D01*
%TO.N,Net-(C21-Pad1)*%
X144695000Y-91440000D02*
X143425000Y-90170000D01*
X147320000Y-91440000D02*
X144695000Y-91440000D01*
%TO.N,Net-(D2-Pad2)*%
X107950000Y-87945000D02*
X107950000Y-90005000D01*
D35*
%TO.N,/SPI2_MOSI*%
X127270000Y-87570000D02*
X127013369Y-87313369D01*
X126239734Y-87313369D02*
X125985735Y-87567368D01*
X127013369Y-87313369D02*
X126239734Y-87313369D01*
%TO.N,/SPI2_MISO*%
X100965000Y-90170000D02*
X99695000Y-91440000D01*
X100965000Y-85944426D02*
X100965000Y-90170000D01*
X102705237Y-84204189D02*
X100965000Y-85944426D01*
X112657496Y-84204189D02*
X102705237Y-84204189D01*
X113426202Y-84972896D02*
X112657496Y-84204189D01*
X126305000Y-89035000D02*
X125457696Y-89035000D01*
X124687696Y-88265000D02*
X116051695Y-88265000D01*
X125457696Y-89035000D02*
X124687696Y-88265000D01*
X116051695Y-88265000D02*
X113426202Y-85639507D01*
X113426202Y-85639507D02*
X113426202Y-84972896D01*
%TO.N,/SPI2_~CS*%
X127708901Y-91561099D02*
X127708901Y-92001099D01*
X127770000Y-91500000D02*
X127708901Y-91561099D01*
X127708901Y-92001099D02*
X127381000Y-92329000D01*
X127381000Y-92329000D02*
X126238000Y-92329000D01*
%TO.N,/SPI2_SCK*%
X112813990Y-83826378D02*
X102228622Y-83826378D01*
X113804013Y-84816401D02*
X112813990Y-83826378D01*
X102228622Y-83826378D02*
X99695000Y-86360000D01*
X126305000Y-88535000D02*
X125492000Y-88535000D01*
X124755901Y-87798901D02*
X116119901Y-87798901D01*
X125492000Y-88535000D02*
X124755901Y-87798901D01*
X116119901Y-87798901D02*
X113804013Y-85483013D01*
X113804013Y-85483013D02*
X113804013Y-84816401D01*
%TO.N,/GDO1*%
X104013000Y-84582000D02*
X102235000Y-86360000D01*
X112501002Y-84582000D02*
X104013000Y-84582000D01*
X125423393Y-89535000D02*
X124534392Y-88646000D01*
X113048391Y-85129390D02*
X112501002Y-84582000D01*
X126305000Y-89535000D02*
X125423393Y-89535000D01*
X115797696Y-88646000D02*
X113048391Y-85896695D01*
X124534392Y-88646000D02*
X115797696Y-88646000D01*
X113048391Y-85896695D02*
X113048391Y-85129390D01*
%TO.N,/GDO0*%
X127041098Y-91728902D02*
X125867753Y-91728902D01*
X125867753Y-91728902D02*
X125489754Y-92106901D01*
X127270000Y-91500000D02*
X127041098Y-91728902D01*
D34*
%TO.N,/5V_EXT*%
X108585000Y-97716502D02*
X108585000Y-94885000D01*
X108003502Y-98298000D02*
X108585000Y-97716502D01*
X100203000Y-98298000D02*
X108003502Y-98298000D01*
X99695000Y-96520000D02*
X99695000Y-97790000D01*
X99695000Y-97790000D02*
X100203000Y-98298000D01*
%TO.N,Net-(JP1-Pad1)*%
X107950000Y-86045000D02*
X111445000Y-86045000D01*
X111760000Y-86360000D02*
X111445000Y-86045000D01*
X111760000Y-87630000D02*
X111760000Y-86360000D01*
D35*
%TO.N,/RF_N*%
X130235000Y-89535000D02*
X131630000Y-89535000D01*
%TO.N,/RF_P*%
X130860000Y-90035000D02*
X131630000Y-90805000D01*
X130235000Y-90035000D02*
X130860000Y-90035000D01*
D33*
%TO.N,/RBIAS*%
X128770000Y-86945000D02*
X128770000Y-87570000D01*
X129540000Y-86175000D02*
X128770000Y-86945000D01*
%TD*%
%TO.N,GND*%
G36*
X133159500Y-92300552D02*
G01*
X133171444Y-92421825D01*
X133174543Y-92432041D01*
X133174543Y-92460000D01*
X133184351Y-92559585D01*
X133213399Y-92655343D01*
X133242614Y-92710000D01*
X133213399Y-92764657D01*
X133184351Y-92860415D01*
X133174543Y-92960000D01*
X133174543Y-93360000D01*
X133184351Y-93459585D01*
X133213399Y-93555343D01*
X133260571Y-93643595D01*
X133324052Y-93720948D01*
X133401405Y-93784429D01*
X133489657Y-93831601D01*
X133585415Y-93860649D01*
X133685000Y-93870457D01*
X133858000Y-93870457D01*
X133858000Y-98425000D01*
X133860440Y-98449776D01*
X133867667Y-98473601D01*
X133879403Y-98495557D01*
X133895197Y-98514803D01*
X133914443Y-98530597D01*
X133936399Y-98542333D01*
X133960224Y-98549560D01*
X133985000Y-98552000D01*
X147955000Y-98552000D01*
X147979776Y-98549560D01*
X148003601Y-98542333D01*
X148025557Y-98530597D01*
X148044803Y-98514803D01*
X148060597Y-98495557D01*
X148072333Y-98473601D01*
X148079560Y-98449776D01*
X148082000Y-98425000D01*
X148082000Y-95345734D01*
X149098000Y-95347299D01*
X149098000Y-99568000D01*
X132842000Y-99568000D01*
X132842000Y-92623219D01*
X132882276Y-92562942D01*
X132939717Y-92424267D01*
X132969000Y-92277050D01*
X132969000Y-92202000D01*
X133159500Y-92202000D01*
X133159500Y-92300552D01*
G37*
X133159500Y-92300552D02*
X133171444Y-92421825D01*
X133174543Y-92432041D01*
X133174543Y-92460000D01*
X133184351Y-92559585D01*
X133213399Y-92655343D01*
X133242614Y-92710000D01*
X133213399Y-92764657D01*
X133184351Y-92860415D01*
X133174543Y-92960000D01*
X133174543Y-93360000D01*
X133184351Y-93459585D01*
X133213399Y-93555343D01*
X133260571Y-93643595D01*
X133324052Y-93720948D01*
X133401405Y-93784429D01*
X133489657Y-93831601D01*
X133585415Y-93860649D01*
X133685000Y-93870457D01*
X133858000Y-93870457D01*
X133858000Y-98425000D01*
X133860440Y-98449776D01*
X133867667Y-98473601D01*
X133879403Y-98495557D01*
X133895197Y-98514803D01*
X133914443Y-98530597D01*
X133936399Y-98542333D01*
X133960224Y-98549560D01*
X133985000Y-98552000D01*
X147955000Y-98552000D01*
X147979776Y-98549560D01*
X148003601Y-98542333D01*
X148025557Y-98530597D01*
X148044803Y-98514803D01*
X148060597Y-98495557D01*
X148072333Y-98473601D01*
X148079560Y-98449776D01*
X148082000Y-98425000D01*
X148082000Y-95345734D01*
X149098000Y-95347299D01*
X149098000Y-99568000D01*
X132842000Y-99568000D01*
X132842000Y-92623219D01*
X132882276Y-92562942D01*
X132939717Y-92424267D01*
X132969000Y-92277050D01*
X132969000Y-92202000D01*
X133159500Y-92202000D01*
X133159500Y-92300552D01*
G36*
X149098000Y-87532701D02*
G01*
X148082000Y-87534266D01*
X148082000Y-84455000D01*
X148079560Y-84430224D01*
X148072333Y-84406399D01*
X148060597Y-84384443D01*
X148044803Y-84365197D01*
X148025557Y-84349403D01*
X148003601Y-84337667D01*
X147979776Y-84330440D01*
X147955000Y-84328000D01*
X133985000Y-84328000D01*
X133960224Y-84330440D01*
X133936399Y-84337667D01*
X133914443Y-84349403D01*
X133895197Y-84365197D01*
X133879403Y-84384443D01*
X133867667Y-84406399D01*
X133860440Y-84430224D01*
X133858000Y-84455000D01*
X133858000Y-84612734D01*
X133855812Y-84590518D01*
X133819502Y-84470820D01*
X133760537Y-84360506D01*
X133681185Y-84263815D01*
X133584494Y-84184463D01*
X133474180Y-84125498D01*
X133354482Y-84089188D01*
X133230000Y-84076928D01*
X133115750Y-84080000D01*
X132957002Y-84238748D01*
X132957002Y-84080000D01*
X132842000Y-84080000D01*
X132842000Y-83312000D01*
X149098000Y-83312000D01*
X149098000Y-87532701D01*
G37*
X149098000Y-87532701D02*
X148082000Y-87534266D01*
X148082000Y-84455000D01*
X148079560Y-84430224D01*
X148072333Y-84406399D01*
X148060597Y-84384443D01*
X148044803Y-84365197D01*
X148025557Y-84349403D01*
X148003601Y-84337667D01*
X147979776Y-84330440D01*
X147955000Y-84328000D01*
X133985000Y-84328000D01*
X133960224Y-84330440D01*
X133936399Y-84337667D01*
X133914443Y-84349403D01*
X133895197Y-84365197D01*
X133879403Y-84384443D01*
X133867667Y-84406399D01*
X133860440Y-84430224D01*
X133858000Y-84455000D01*
X133858000Y-84612734D01*
X133855812Y-84590518D01*
X133819502Y-84470820D01*
X133760537Y-84360506D01*
X133681185Y-84263815D01*
X133584494Y-84184463D01*
X133474180Y-84125498D01*
X133354482Y-84089188D01*
X133230000Y-84076928D01*
X133115750Y-84080000D01*
X132957002Y-84238748D01*
X132957002Y-84080000D01*
X132842000Y-84080000D01*
X132842000Y-83312000D01*
X149098000Y-83312000D01*
X149098000Y-87532701D01*
G36*
X133858000Y-87207000D02*
G01*
X133838000Y-87207000D01*
X133838000Y-86953000D01*
X133858000Y-86953000D01*
X133858000Y-87207000D01*
G37*
X133858000Y-87207000D02*
X133838000Y-87207000D01*
X133838000Y-86953000D01*
X133858000Y-86953000D01*
X133858000Y-87207000D01*
G36*
X133858000Y-86145000D02*
G01*
X133857998Y-86145000D01*
X133857998Y-86299748D01*
X133703250Y-86145000D01*
X133594476Y-86157594D01*
X133475751Y-86196968D01*
X133412321Y-86232998D01*
X133410252Y-86232998D01*
X133565000Y-86078250D01*
X133557118Y-86010170D01*
X133584494Y-85995537D01*
X133681185Y-85916185D01*
X133760537Y-85819494D01*
X133819502Y-85709180D01*
X133855812Y-85589482D01*
X133858000Y-85567266D01*
X133858000Y-86145000D01*
G37*
X133858000Y-86145000D02*
X133857998Y-86145000D01*
X133857998Y-86299748D01*
X133703250Y-86145000D01*
X133594476Y-86157594D01*
X133475751Y-86196968D01*
X133412321Y-86232998D01*
X133410252Y-86232998D01*
X133565000Y-86078250D01*
X133557118Y-86010170D01*
X133584494Y-85995537D01*
X133681185Y-85916185D01*
X133760537Y-85819494D01*
X133819502Y-85709180D01*
X133855812Y-85589482D01*
X133858000Y-85567266D01*
X133858000Y-86145000D01*
G36*
X132957000Y-84963000D02*
G01*
X132977000Y-84963000D01*
X132977000Y-85217000D01*
X132957000Y-85217000D01*
X132957000Y-85237000D01*
X132842000Y-85237000D01*
X132842000Y-84943000D01*
X132957000Y-84943000D01*
X132957000Y-84963000D01*
G37*
X132957000Y-84963000D02*
X132977000Y-84963000D01*
X132977000Y-85217000D01*
X132957000Y-85217000D01*
X132957000Y-85237000D01*
X132842000Y-85237000D01*
X132842000Y-84943000D01*
X132957000Y-84943000D01*
X132957000Y-84963000D01*
%TD*%
M02*
